<?xml version="1.0" encoding="utf-8"?>
<!-- Generator: Adobe Illustrator 19.0.0, SVG Export Plug-In . SVG Version: 6.00 Build 0)  -->
<svg version="1.1" id="Слой_1" xmlns="http://www.w3.org/2000/svg" xmlns:xlink="http://www.w3.org/1999/xlink" x="0px" y="0px"
	 viewBox="0 0 327 327" style="enable-background:new 0 0 327 327;" xml:space="preserve">
<style type="text/css">
	.st0{fill:#2B2A29;}
	.st1{fill-rule:evenodd;clip-rule:evenodd;fill:#FF003E;}
</style>
<circle class="st0" cx="163.6" cy="163.4" r="163.5"/>
<path class="st1" d="M240.9,194.1L240.9,194.1c-1.1-0.7-1.4-0.8-1.7-0.8c-0.5,0-1.1,0.3-1.7,0.8c-2.9,2.5-5.5,5.4-7.8,8.8
	c0.4-1.1,0.9-2.4,1.5-3.8c1.1-2.5,2-4.3,2.7-5.4c1.1-1.8,2.2-2.7,3.2-2.7c0.1,0,0.3,0,0.5,0.1c0.3,0,0.5,0.1,0.6,0.1
	c0.9,0,1-0.5,1-0.7c0-0.3-0.2-0.6-0.6-0.8c-2.2-1.3-3.6-2-4.5-2c-0.9,0-1.8,0.7-2.8,2.3c-1.6,2.5-3.8,8-6.6,16.4
	c-3.5,10.7-5.7,20.6-6.4,29.3c-0.2,1,0.1,1.9,0.9,2.6c1.4,1.2,1.9,1.4,2.2,1.4c0.8,0,0.9-1.2,1-1.6c0.6-8.2,0.7-9.1,0.7-9.1
	c0.4-3.6,1.3-7.6,2.7-11.9c2.3-7.5,6.4-14,12.1-19.4c0.7-0.7,1.4-1.1,1.8-1.1c0.2,0,0.6,0,0.7,1.2c0.1,2.1-0.3,4.6-1.2,7.5
	c-0.8,2.3-1.6,4.2-2.4,5.6c-1,1.5-2,2.3-3.2,2.3c-0.2,0-0.5-0.1-0.8-0.2c-0.4-0.1-0.7-0.2-1-0.2c-1,0-1.1,0.6-1.1,0.8
	c0,0.4,0.2,0.7,0.7,1c2,1.4,3.4,2,4.3,2c0.8,0,1.6-0.4,2.4-1.1c1.3-1.2,2.6-3.4,3.9-6.6c1.4-3.4,2.2-6.7,2.4-9.7
	C244.6,196.6,243.3,194.9,240.9,194.1 M199.1,194L199.1,194c-0.2-0.1-0.5-0.3-1.5-0.4c-0.6-0.4-1.1-0.6-1.4-0.6
	c-0.5,0-1,0.4-1.7,1.3c-2.4,3.2-4.6,6.8-6.6,10.8c0.3-1,0.7-2.2,1.1-3.4c1.3-3.8,1.9-5,2.2-5.3c0.2-0.3,0.3-0.6,0.3-0.9
	c-0.1-0.3-0.3-0.5-0.7-0.7c-1.4-0.7-1.9-0.8-2.1-0.8c-0.6,0-1.1,0.4-1.6,1.3c-1.4,2.1-2.6,3.7-3.5,4.7c-0.2,0.3-0.3,0.5-0.3,0.7
	c0,0.4,0.3,0.7,0.8,0.7c0.4,0,0.7-0.2,0.9-0.5c0.2-0.3,0.7-0.9,1.3-1.6c-1.4,3.9-2.7,8.5-4,13.9c-0.3,1.3,0.3,1.9,0.8,2.1
	c1.9,1,2.1,1,2.3,1c0.4,0,1-0.4,1.8-3.1c1.8-5.9,4.6-11.2,8.2-15.9c0.3-0.4,0.5-0.6,0.7-0.7c0,0,0,0.1,0,0.1c0,0.9-0.2,2.2-0.7,3.7
	c-0.3,1,0.1,1.6,0.4,1.9c1.2,1,1.6,1.1,1.9,1.1c0.5,0,0.9-0.4,1.1-1.2c0.6-2.1,0.9-4.4,0.9-6.7C199.7,194.8,199.5,194.3,199.1,194z
	 M178.7,200.3L178.7,200.3c0.3-0.7,0.6-1.3,0.8-1.9c0.4-1,0.6-1.8,0.6-2.5c0-0.8-0.3-1.4-1-1.8c-1-0.5-1.7-0.8-2.3-0.8
	c-0.8,0-1.4,0.6-1.7,1.8l-0.5,2.4c-0.2,0.5-0.3,1-0.3,1.4c0,0.5,0.1,0.9,0.4,1.3c0.2,0.3,0.4,0.6,0.6,0.8c-0.6,2.5-2.3,6.3-4.8,11.2
	c-0.6,1.2-0.9,1.2-0.9,1.2c0,0-0.2-0.1-0.4-0.9c-0.7-2.7-1.1-5.4-1.1-8c0-1.2,0.1-2.4,0.2-3.5c0.8-1.1,1.4-2.4,2-3.8
	c0.4-1.1,0.4-1.4,0.4-1.5c0-0.4-0.3-0.8-0.9-1.2c-1-0.7-1.7-1-2.2-1c-0.6,0-1.2,0.4-1.7,1.3c-0.5,0.9-0.9,2-1.2,3.2
	c-0.1,0.7-0.3,1.9-0.4,3.5c-1,2.6-2.9,5.4-5.7,8.2c1-3.8,1.5-8.3,1.5-13.3c0-1.3-0.1-1.7-0.1-1.9c-0.1-0.5-0.4-0.8-0.9-0.8
	c-0.2,0-0.5,0-0.8,0.1c-1.9,0.5-2,0.5-2.1,0.5c-0.6,0.2-1.1,0.7-1.4,1.3c-1,1.6-1.8,2.7-2.3,3.4c-0.2,0.2-0.3,0.4-0.3,0.7
	c0,0.6,0.3,0.9,0.9,0.9c0.3,0,0.6-0.1,1-0.5c0.8-1,1.4-1.8,1.9-2.3c0,0.4,0.1,0.9,0.1,1.5c0,1.9-0.2,4.2-0.6,6.8
	c-0.4,2.6-0.9,4.8-1.5,6.5c-0.8,0.6-1.1,1-1.1,1.4c0,0.3,0.2,0.6,0.5,0.8c1.2,0.9,2,1.3,2.5,1.3c0.5,0,0.9-0.2,1.2-0.6
	c0.4-0.6,1.6-2.1,3.5-4.3c1.6-1.9,2.9-3.5,3.8-4.7c0.1,1.9,0.5,4.2,1.2,6.9c0.3,1.1,0.5,1.5,0.7,1.6c0.1,0.1,0.5,0.4,1.7,0.8
	c1.3,0.4,1.8,0.5,2,0.5c0.8,0,1.5-0.5,2.1-1.4c1.6-2.2,3.5-6.2,5.6-12.1c0.1,0.1,0.2,0.1,0.4,0.2c0.9,0.6,1.1,0.6,1.2,0.6
	c0.7,0,1.1-0.4,1.1-1.1c0-0.4-0.2-0.7-0.5-1C179.3,200.8,178.9,200.5,178.7,200.3z M215.3,198.2L215.3,198.2
	c-0.6,1.5-2.1,3.8-4.4,6.7c-2.3,2.9-4.4,5.3-6.4,7.2c-0.8,0.8-1.4,1.1-1.9,1.1c-0.1,0-0.2,0-0.2-0.3c0-0.1,0-0.2,0-0.3
	c0.5-2.7,1.9-5.9,4.2-9.4c2-3,3.8-5.1,5.5-6.3c0.3-0.2,0.7-0.4,1.2-0.4c0.4,0,1,0.1,1.5,0.4c0.2,0.1,0.3,0.1,0.5,0.1
	c0.2,0,0.4,0,0.5-0.1C215.7,197.3,215.5,197.7,215.3,198.2z M219.6,206.9c0-0.4-0.3-0.7-0.7-0.7c-0.4,0-0.7,0.2-1,0.6
	c0,0-0.2,0.2-0.9,0.9c-0.1,0.1-0.1,0.2-0.2,0.3c0.7-2.8,1.7-6.2,3.1-10.1c0.2-0.6,0.3-1,0.3-1.3c0-0.3-0.3-0.7-0.8-1
	c-1.4-1-1.8-1.1-2.1-1.1c-0.6,0-0.9,0.8-1.1,1.4c0,0.1,0,0.1-0.1,0.2c0-0.2-0.2-0.3-0.3-0.5c-2.5-2.3-3.4-2.6-3.9-2.6
	c-0.7,0-1.5,0.4-2.4,1.2c-2.6,2.4-4.9,5.3-6.9,8.8c-2,3.5-3.2,6.6-3.5,9.2c0,0.3-0.1,0.5-0.1,0.7c0,1.1,0.5,2,1.5,2.6
	c0.7,0.6,1.3,0.8,1.7,0.8c0.5,0,1.1-0.3,1.9-0.8c1.1-0.7,2.7-2.4,5.1-5.1c1.9-2.2,3.6-4.2,4.9-6.1c-0.8,2.5-1.4,5.4-2,8.8
	c-0.1,0.7-0.1,1.1,0,1.3c0.1,0.3,0.4,0.6,1,1c1.2,0.8,1.6,0.9,1.9,0.9c0.7,0,1-1,1-1.3c0.5-2.4,1.6-4.9,3.3-7.3
	C219.5,207.4,219.6,207.2,219.6,206.9z M268.6,142.7L268.6,142.7c-0.3,0.6-0.8,1.4-1.6,2.2c-0.7,0.8-1.4,1.6-2.1,2.4
	c-0.7,0.8-1.3,1.5-1.9,2.2c-0.5,0.7-0.8,1.2-0.8,1.6c0,0.6,0.2,1.1,0.5,1.4c0.3,0.3,0.7,0.6,1,0.7c-0.7,1.5-1.4,3.2-2.1,4.9
	c-0.7,1.8-1.5,3.4-2.3,4.9c-0.9,1.5-1.8,2.8-2.8,3.8c-1,1-2.2,1.5-3.5,1.5c0,0-0.1,0-0.1,0c0,0.2,0.1,0.4,0.1,0.6
	c0.1,0.5,0.3,1,1,1.4c-0.3,0.2-0.8,0.2-1.2,0c-0.4-0.1-0.7-0.4-1-0.7c-0.6-0.6-0.9-1.3-1.2-1.9c-0.2-0.4-0.3-0.8-0.4-1.2
	c0-0.1-0.1-0.2-0.1-0.3c-0.5-1.4-0.6-3.1-0.4-5.2c0.2-2.1,0.8-4.3,1.8-6.7c1-2.4,2.2-4.6,3.7-6.7c1.5-2.1,3.3-3.8,5.3-5.2
	c2-1.4,4.2-2.1,6.5-2.1c1.1,0,1.7,0.2,1.9,0.6C268.9,141.5,268.9,142,268.6,142.7z M292.9,156.1c-0.2-1.7-0.9-2.5-2.2-2.5
	c-0.5,0-1.1,0.5-1.9,1.4c-0.8,0.9-1.7,2.1-2.7,3.5c-1,1.4-2.1,2.9-3.3,4.6c-1.2,1.6-2.3,3.2-3.5,4.6c-1.2,1.4-2.3,2.6-3.5,3.5
	c-1.2,0.9-2.2,1.4-3.1,1.4c-1.5,0-2.2-0.8-2.1-2.5c0.1-1.6,0.5-3.5,1.4-5.7c0.8-2.1,1.9-4.2,3.1-6.3c1.2-2.1,2.3-3.5,3.3-4.5
	c0.5-0.5,0.8-1.1,0.7-1.6c-0.1-0.5-0.3-1-0.8-1.5c-0.5-0.5-1.1-0.9-1.8-1.3c-0.7-0.4-1.6-0.7-2.5-1c0.9-1.1,1.5-2.3,2-3.8
	c0.5-1.5,0.8-3.2,0.8-5.2c0-0.8-0.2-1.8-0.5-2.7c-0.3-1-0.9-1.9-1.6-2.7c-0.8-0.8-1.8-1.5-3-2c-1.2-0.5-2.8-0.8-4.7-0.8
	c-1.9,0-4.5,0.7-7.9,2.1c-3.4,1.4-6.8,3.5-10.2,6.3c-3.4,2.9-6.3,6.5-8.9,11c-1.4,2.5-2.4,5.3-3,8.4c-1,1.3-2,2.7-3.1,4.1
	c-1.2,1.6-2.4,3.2-3.6,4.6c-1.2,1.4-2.3,2.6-3.3,3.5c-0.6,0.6-1.2,0.9-1.7,1.2c0.1,0.2,0.1,0.4,0.3,0.6c0.3,0.5,1,0.8,1.7,1.1
	c-0.7,0.3-1.6,0.4-2.5,0.1c-0.5-0.2-2.1-0.9-2.1-3.4c0-3.6,2.3-8.4,2.6-9.3c0.8-2.1,1.6-4.3,2.4-6.5c0.8-2.2,1.5-4.4,2.1-6.6
	c0.6-2.2,0.9-4.1,0.9-5.9c0-3.5-0.7-6.1-2.2-7.9c-1.5-1.8-3.3-2.8-5.5-3c-2.2-0.3-4.6,0.1-7.2,1.2c-2.6,1.1-5,2.6-7.2,4.7
	c1.5-3.4,3-6.9,4.7-10.8c1.7-3.8,3.7-7.9,5.9-12.3c0.5-0.9,0.3-1.9-0.6-2.8c-0.9-1-1.9-1.8-3.2-2.6c-1.3-0.8-2.6-1.5-3.9-2
	c-1.3-0.5-2.2-0.8-2.7-0.8c-0.8,0-2,1.2-3.5,3.5c-1.5,2.3-3.2,5.4-5,9.1c-1.8,3.8-3.7,8.1-5.6,12.9c-1.9,4.8-3.6,9.8-5.1,14.8
	c-1.5,5-2.8,9.9-3.9,14.7c-1,4.8-1.6,9.1-1.6,12.8c0,2.1,0.3,3.9,0.9,5.4c0.6,1.5,1.4,2.7,2.3,3.7c1,1,2.1,1.6,3.5,2.1
	c1.4,0.4,2.8,0.6,4.2,0.6c0.5,0,0.9-0.1,1.2-0.4c0.2-0.3,0.4-0.7,0.5-1.4c0.1-0.7,0.1-1.6,0.2-2.8c0-1.2,0.1-2.6,0.3-4.4
	c0.2-1.4,0.3-2.7,0.5-3.9c0.2-1.1,0.3-2.2,0.6-3.3c0.2-1.1,0.5-2.2,0.8-3.3c0.3-1.1,0.7-2.4,1-3.8c0.8-2.6,1.7-5.2,2.8-7.8
	c1.1-2.6,2.4-5,3.7-7.1c0.6-1,1.3-1.9,2-2.8c0-0.1,0.1-0.1,0.1-0.2c0.8-1.1,1.7-2.2,2.9-3c1.2-0.8,2.7-1.5,4.4-1.3
	c0.8,0.1,1.7,0.5,2.2,1.1c0.5,0.6,0.8,1.4,0.7,2.1c-0.5-0.5-1-0.8-1.6-0.9c-0.3-0.1-0.6-0.1-0.9-0.1c-0.1,0.9-0.4,2.1-0.9,3.5
	c-0.6,1.7-1.3,3.7-2.2,5.9c-0.9,2.2-1.8,4.6-2.7,7.1c-0.9,2.5-1.6,5-2.3,7.5c-0.6,2.6-0.9,5-0.9,7.4c0,1.6,0.2,3.2,0.6,4.8
	c0.4,1.6,1,3,1.9,4.3c0.8,1.3,1.8,2.3,3,3.1c1.2,0.8,2.4,1.2,3.8,1.2c3,0,5.9-0.8,8.8-2.5c2.9-1.7,5.4-3.7,7.8-6.2
	c1.3-1.4,2.5-2.8,3.6-4.3c0,0.1,0.1,0.3,0.1,0.4c0.7,2.2,1.6,4.1,2.7,5.6c1.1,1.5,2.3,2.6,3.6,3.3c1.3,0.7,2.6,1,3.9,1
	c1.2,0,2.5-0.5,3.8-1.6c1.3-1.1,2.5-2.2,3.6-3.5c1.3-1.5,2.5-3.3,3.7-5.3c-0.2,2.4-0.1,4.7,0.3,6.6c0.4,1.7,1.1,3.2,2.1,4.5
	c1,1.3,2.7,2,4.9,2c3,0,5.9-0.8,8.7-2.5c2.8-1.7,5.3-3.8,7.6-6.2c2.3-2.5,4.2-5.2,5.9-8.1c1.7-2.9,2.9-5.6,3.8-8.1
	C292.7,159.9,293,157.8,292.9,156.1z M158.6,177.3L158.6,177.3c-1.5,2.2-2.7,3.3-3.8,3.3c-1.2,0-1.8-0.4-1.9-1.3
	c-0.1-0.8,0.3-1.8,1-3c0.8-1.2,1.9-2.4,3.5-3.7c1.6-1.3,3.5-2.4,5.7-3.3C161.6,172.4,160.1,175.1,158.6,177.3z M186.6,138.6
	c0-1.1-0.2-2.2-0.6-3.5c-0.4-1.3-0.9-2.4-1.7-3.5c-0.7-1.1-1.6-2-2.7-2.7c-1.1-0.7-2.3-1-3.7-1c-1.9,0.1-3.8,0.7-5.7,1.9
	c-1.9,1.2-3.6,2.5-5.1,3.8c-1.8,1.7-3.5,3.5-5.1,5.6c0.7-1.1,0.7-2.2-0.1-3c-0.7-0.9-1.7-1.6-3-2.1c-1.2-0.5-2.5-0.9-3.8-1.2
	c-1.3-0.3-2.2-0.4-2.7-0.4c-0.8,0-2,1-3.4,3.1c-1.4,2.1-3,5-4.7,8.6c-1.7,3.7-3.4,7.9-5.1,12.8c-0.3,0.8-0.5,1.5-0.8,2.3
	c-1,1.3-2.1,2.6-3.3,4.1c-1.2,1.5-2.4,3-3.5,4.3c-0.9,1-1.7,1.9-2.5,2.7c-0.1,0.2-0.3,0.3-0.4,0.5c-0.5,0.5-1.1,1-1.9,1.3
	c-0.3,0.2-0.6,0.3-0.9,0.3c-0.1,0-0.1,0-0.2,0c-0.8,0.1-1.6-0.1-2.2-0.5c-1.7-1-2.5-2.6-2.7-4.1c-0.2-1.5,0.1-3.1,1.1-4.2
	c0.2,1.4,0.6,2.6,1.1,3.6c0.1,0.3,0.3,0.5,0.4,0.8c0-1.1,0.2-2.3,0.5-3.8c0.5-2.5,1.3-5.3,2.4-8.5c1.1-3.2,2.3-6.5,3.8-9.9
	c1.4-3.4,2.9-6.8,4.5-10.3c1.6-3.4,3.1-6.6,4.6-9.4c1.5-2.9,2.9-5.3,4.1-7.4c1.2-2.1,2.2-3.5,2.9-4.3c0.7-0.8,0.6-1.6-0.2-2.6
	c-0.8-0.9-1.9-1.9-3.2-2.7c-1.4-0.9-2.7-1.6-4.2-2.2c-1.4-0.6-2.4-0.9-2.8-0.9c-1.1,0-2.5,1.2-4.2,3.6c-1.7,2.4-3.6,5.5-5.5,9.4
	c-1.9,3.9-3.9,8.3-5.8,13.3c-2,5-3.7,10-5.2,15.1c-1.5,5.1-2.6,10.1-3.3,15c-0.7,4.9-0.9,9.2-0.4,12.9c0,1,0.2,2.2,0.5,3.5
	c0.3,1.3,0.9,2.6,1.7,3.8c0.8,1.2,1.8,2.2,3.1,3.1c1.2,0.8,2.7,1.3,4.5,1.3c3.3,0,6.2-1,8.7-2.9c0.8-0.6,1.5-1.3,2.2-1.9
	c-0.5,2.5-0.9,5-1.3,7.6c-0.9,5.9-1.3,11.8-1.3,17.6c0,0.9,0.2,1.9,0.5,2.9c0.3,1,1,1.9,1.9,2.7c0.9,0.8,2,1.5,3.5,2
	c1.4,0.5,3.3,0.8,5.5,0.8c0.8,0,1.3-0.8,1.3-2.3c0-1.5,0-3.8,0-6.7c0-3,0.1-6.6,0.4-11c0.3-4.3,1.2-9.3,2.5-15c0.8-3,2-6.1,3.4-9.5
	c1.4-3.4,3-6.6,4.7-9.9c1.7-3.2,3.5-6.3,5.3-9.3c1.9-2.9,3.6-5.5,5.3-7.8c1.7-2.2,3.2-4,4.5-5.4c1.3-1.3,2.4-2,3.2-2
	c0.8,0,1.1,0.8,1,2.3c-0.1,1.6-0.4,3.6-1,6c-0.6,2.4-1.4,5.2-2.5,8.3c-1,3.1-2.2,6.1-3.4,9.1c-2.9,0.8-5.5,1.9-7.6,3.3
	c-2.2,1.4-3.9,3.1-5.2,4.9c-1.3,1.8-2.2,3.6-2.6,5.5c-0.4,1.9-0.3,3.6,0.2,5.2c0.6,1.6,1.7,2.8,3.2,3.8c1.6,1,3.7,1.5,6.4,1.5
	c1.9,0,3.8-0.8,5.8-2.3c2-1.5,4-3.6,6-6.1c1.9-2.6,3.8-5.5,5.6-8.8c1.8-3.3,3.3-6.8,4.6-10.4c1.3-3.6,2.4-7.2,3.1-10.9
	C186.2,145.1,186.6,141.7,186.6,138.6z M93.3,149.9L93.3,149.9c-2.3,7.1-4.1,13.9-5.3,20.6c-1.2-2.1-2.4-4.1-3.8-6.1
	c-1.4-2-2.9-3.8-4.6-5.6c3.6-4.3,7.2-9,10.6-13.8c3.5-4.9,6.9-9.8,10.3-14.9C98,136.2,95.6,142.8,93.3,149.9z M115.7,195.1
	c-1.1,1.2-2.4,2-3.9,2.7c-1.5,0.6-3.1,1-4.8,1c-1.7,0-3.5-0.4-4.9-1.5c-1.4-1.1-2.2-2.8-2.2-4.4c1.1,1.2,2.2,2,3.4,2.4
	c0.6,0.2,1.3,0.4,2,0.5c-0.9-0.7-1.7-1.8-2.4-3.4c-0.9-2.2-1.3-5.4-1.3-9.8c0-4.3,0.8-10.2,2.3-17.7c0.7-3.4,1.6-7.1,2.7-11.1
	c1.1-4,2.4-8.2,4.1-12.6c1.7-4.4,3.6-8.9,6-13.5c2.3-4.6,5.1-9.3,8.3-14c0.8-1.1,0.9-2.3,0.3-3.4c-0.6-1.1-1.4-2.2-2.6-3.1
	c-1.2-0.9-2.4-1.7-3.6-2.3c-1.3-0.6-2.3-1-3-1.2c-0.1-0.1-0.2-0.1-0.3-0.1c-8.7,0-16.7,0.6-24,1.8c-7.3,1.2-13.5,2.8-18.8,4.9
	c-5.3,2.1-9.4,4.5-12.3,7.3c-2.9,2.8-4.4,5.9-4.4,9.3c0,2.7,0.7,5.2,2.2,7.5c1.5,2.3,3.1,4.2,4.9,5.5c1.8,1.4,3.4,2.1,4.9,2.1
	c1.4,0,2.2-0.9,2.2-2.9c0-0.1-0.1-0.2-0.1-0.2c-0.2-1-0.5-2-0.6-3.1c-0.3-2.1-0.3-4.2-0.1-6.3c0.2-2.1,0.7-4.2,1.6-6.2
	c0.5-1,1-1.9,1.6-2.8c0.7-0.9,1.4-1.7,2.3-2.2c-0.4,1-0.8,1.9-1,2.9c-0.3,0.9-0.5,1.9-0.7,2.9c-0.1,0.6-0.2,1.2-0.3,1.8
	c0.7-1.1,1.6-2.2,2.6-3.3c2.3-2.2,5.6-4.2,10-5.7c4.4-1.6,10.2-2.7,17.7-3.4c-2.2,2.4-4.6,5.2-7.1,8.3c-2.5,3.1-5.1,6.3-7.8,9.6
	c-2.7,3.3-5.5,6.7-8.3,10c-2.8,3.4-5.7,6.5-8.5,9.5c-3.6-2.8-7.3-5-11.2-6.6c-3.8-1.6-7.6-2.4-11.3-2.4c-2.3,0-4.4,0.6-6.3,1.9
	c-1.9,1.3-3.3,2.6-4.3,4.2c-1,1.5-1.4,2.9-1.3,4.2c0.2,1.3,1.1,1.9,2.9,1.9c4.9,0,9.2,0.4,13.1,1.1c3.9,0.8,7.5,1.9,10.7,3.3
	c-2.5,2.2-4.9,4.1-7.4,5.7c-2.5,1.6-4.8,2.7-7.1,3.4c-2.3,0.7-4.5,0.8-6.5,0.5c-2.1-0.4-4-1.4-5.7-3.2c-0.7-0.7-1.3-0.7-1.8,0
	c-0.5,0.7-0.8,1.8-0.9,3.2c-0.1,1.4,0,3.1,0.3,5c0.3,1.9,1,3.7,2.1,5.4c1,1.7,2.4,3.2,4.2,4.3c1.8,1.2,4,1.8,6.7,1.8
	c3.5,0,7.5-1.8,12.1-5.4c4.6-3.6,9.5-8.3,14.9-14.3c2.1,1.8,3.9,3.6,5.3,5.4c1.5,1.9,2.7,3.7,3.6,5.5c0.9,1.8,1.6,3.4,2,5
	c0.4,1.5,0.6,2.8,0.6,3.8c-0.2,3.5,0,6.7,0.4,9.7c0.4,2.9,1.2,5.4,2.3,7.5c1.1,2.1,2.6,3.7,4.5,4.9c1.9,1.2,4.3,1.8,7.2,1.8
	c0.5,0,1.6-0.1,3.1-0.3c1.5-0.2,3.1-0.7,4.8-1.6c1.7-0.9,3.2-2.2,4.6-4C114.6,200.7,115.5,198.2,115.7,195.1
	C115.8,195.1,115.8,195.1,115.7,195.1z M163.6,10C248.3,10,317,78.7,317,163.4c0,84.7-68.7,153.4-153.4,153.4S10.2,248.2,10.2,163.4
	C10.2,78.7,78.9,10,163.6,10z"/>
<path d="M254.5,262h2.2c0.9,0,1.6-0.2,2.1-0.5c0.5-0.3,0.8-0.9,0.8-1.7c0-0.8-0.3-1.4-0.8-1.7c-0.5-0.3-1.2-0.5-2.1-0.5h-2.2V262z
	 M248.4,266.2v-20.9h0.3h5.8v8.1h3.1c0.4,0,1,0,1.6,0.1c0.7,0,1.4,0.2,2.1,0.4c1.1,0.3,2.1,0.9,3.1,1.8c0.9,0.9,1.4,2.2,1.4,4.1
	c0,1.9-0.5,3.2-1.4,4.1c-0.9,0.9-1.9,1.5-3,1.8c-0.7,0.2-1.5,0.3-2.1,0.4c-0.7,0-1.2,0.1-1.6,0.1h-0.3H248.4z M245.5,265.2
	c-0.4,0.3-0.8,0.5-1.3,0.7c-0.4,0.2-0.8,0.3-1.3,0.4c-0.5,0.2-1.1,0.3-1.6,0.3c-0.5,0.1-1,0.1-1.5,0.1l-0.3,0c-2.9,0-5.5-1-7.5-2.9
	c-2.1-1.9-3.1-4.6-3.1-8.1c0-3.6,1.1-6.4,3.3-8.2c2.2-1.9,4.6-2.8,7.3-2.8h0.3c0.4,0,0.7,0,1.1,0.1c0.4,0,0.8,0.1,1.2,0.2
	c0.6,0.1,1.2,0.3,1.8,0.5c0.6,0.2,1.1,0.5,1.7,0.9v6.1h-0.3c-0.1-0.1-0.3-0.3-0.4-0.4c-0.2-0.2-0.3-0.3-0.5-0.5
	c-0.4-0.4-1-0.7-1.6-1c-0.6-0.3-1.4-0.5-2.2-0.5c-1.6,0-2.9,0.7-3.8,1.8c-0.9,1.2-1.4,2.6-1.4,4.2c0,1.8,0.5,3.2,1.5,4.1
	c1,1,2.2,1.5,3.7,1.5c1.1,0,2-0.3,2.8-0.7c0.8-0.5,1.5-1,2-1.5h0.3V265.2z M213.8,266.2v-20.9h0.3h12.5v5H220v2.9h6.1v4.6H220v3.3
	h6.7v5h-0.3H213.8z M199.2,250.3v5c0,1.3-0.1,2.5-0.4,3.5c-0.2,1-0.9,1.8-1.8,2.4h6.1v-10.9H199.2z M193.8,245.3h15.4v15.9h2.5v9.2
	h-0.3h-5v-4.2h-11.7v4.2h-0.3h-5v-9.2c0.1,0,0.2,0,0.3,0c0.1,0,0.2,0,0.3,0c0.8-0.2,1.6-0.6,2.3-1.4c0.7-0.7,1.1-1.9,1.2-3.4
	c0-0.2,0-0.5,0-0.7c0-0.2,0-0.5,0-0.8c0-0.1,0-0.2,0-0.2c0-0.1,0-0.2,0-0.2v-9.1H193.8z M175.5,253.5h3.3c1,0,1.7-0.2,2.2-0.5
	c0.4-0.3,0.7-0.6,0.8-1c0-0.1,0.1-0.2,0.1-0.4c0-0.1,0-0.2,0-0.3c0-0.6-0.3-1.1-0.8-1.5c-0.5-0.4-1.2-0.6-2.1-0.6
	c-0.6,0-1.1,0.1-1.6,0.3c-0.5,0.1-1,0.3-1.4,0.6c-0.2,0.1-0.4,0.2-0.5,0.3c-0.2,0.1-0.3,0.2-0.5,0.3h-0.3l-2-4.1
	c0.2-0.1,0.4-0.2,0.7-0.4c0.3-0.1,0.6-0.3,1-0.5c0.7-0.3,1.4-0.5,2.3-0.8c0.9-0.2,1.9-0.3,3-0.3h0.3c2.4,0,4.4,0.6,5.8,1.7
	c1.5,1.1,2.2,2.5,2.2,4.2c0,1.1-0.3,2-0.9,2.9c-0.6,0.9-1.5,1.5-2.5,1.8v0.1c0.1,0,0.2,0,0.3,0.1c0.1,0,0.2,0.1,0.3,0.1
	c0.8,0.3,1.6,0.9,2.3,1.6c0.7,0.7,1,1.8,1,3.2c0,2-0.8,3.6-2.5,4.7c-1.7,1.1-3.6,1.6-5.9,1.6l-0.3,0c-0.6,0-1.2-0.1-1.7-0.1
	c-0.5-0.1-1.1-0.2-1.6-0.3c-0.7-0.2-1.5-0.5-2.2-0.9c-0.8-0.4-1.6-1-2.6-1.7l2.4-3.9h0.3c0.4,0.4,0.9,0.8,1.4,1.1
	c0.5,0.3,1,0.6,1.5,0.8c0.4,0.1,0.7,0.3,1.1,0.3c0.4,0.1,0.7,0.1,1,0.2c0.9,0,1.5-0.2,1.9-0.5c0.4-0.3,0.7-0.7,0.8-1
	c0.1-0.1,0.1-0.2,0.1-0.4c0-0.1,0-0.3,0-0.4c0-0.6-0.2-1.1-0.7-1.5c-0.5-0.4-1.4-0.6-2.7-0.6h-3.3V253.5z M148.6,262h2.2
	c0.9,0,1.6-0.2,2.1-0.5c0.5-0.3,0.8-0.9,0.8-1.7c0-0.8-0.3-1.4-0.8-1.7c-0.5-0.3-1.2-0.5-2.1-0.5h-2.2V262z M142.4,266.2v-20.9h0.3
	h5.8v8.1h3.1c0.4,0,1,0,1.6,0.1c0.7,0,1.4,0.2,2.1,0.4c1.1,0.3,2.1,0.9,3.1,1.8c0.9,0.9,1.4,2.2,1.4,4.1c0,1.9-0.5,3.2-1.4,4.1
	c-0.9,0.9-1.9,1.5-3,1.8c-0.7,0.2-1.5,0.3-2.1,0.4c-0.7,0-1.2,0.1-1.6,0.1h-0.3H142.4z M122.8,245.3h15.9v20.9h-0.3h-5.8v-15.9h-3.9
	v8.2c0,0.4,0,0.9,0,1.4c0,0.5-0.1,1-0.2,1.6c-0.3,1.2-0.9,2.4-1.9,3.4c-1,1-2.8,1.5-5.4,1.5l-0.3,0c-0.3,0-0.6,0-0.8,0
	c-0.2,0-0.5,0-0.7-0.1c-0.1,0-0.3,0-0.4-0.1c-0.1,0-0.3-0.1-0.4-0.1v-5h0.3c0.2,0.1,0.4,0.1,0.6,0.1c0.2,0,0.4,0.1,0.6,0.1
	c1.3,0,2.1-0.5,2.3-1.4c0.3-0.9,0.4-1.9,0.4-3.2v-11.5H122.8z M97,245.3h5.6v12.1l7.8-12.1h0.3h5.7v20.9h-0.3h-5.6v-12l-7.7,12h-0.3
	h-5.8v-20.9H97z M83.9,266.2v-15.9h-4.6v-5h0.3h15v5H90v15.9h-0.3H83.9z M78,265.2c-0.4,0.3-0.8,0.5-1.3,0.7
	c-0.4,0.2-0.8,0.3-1.3,0.4c-0.5,0.2-1.1,0.3-1.6,0.3c-0.5,0.1-1,0.1-1.5,0.1l-0.3,0c-2.9,0-5.5-1-7.5-2.9c-2.1-1.9-3.1-4.6-3.1-8.1
	c0-3.6,1.1-6.4,3.3-8.2c2.2-1.9,4.6-2.8,7.3-2.8h0.3c0.4,0,0.7,0,1.1,0.1c0.4,0,0.8,0.1,1.2,0.2c0.6,0.1,1.2,0.3,1.8,0.5
	c0.6,0.2,1.1,0.5,1.7,0.9v6.1h-0.3c-0.1-0.1-0.3-0.3-0.4-0.4c-0.2-0.2-0.3-0.3-0.5-0.5c-0.4-0.4-1-0.7-1.6-1
	c-0.6-0.3-1.4-0.5-2.2-0.5c-1.6,0-2.9,0.7-3.8,1.8c-0.9,1.2-1.4,2.6-1.4,4.2c0,1.8,0.5,3.2,1.5,4.1c1,1,2.2,1.5,3.7,1.5
	c1.1,0,2-0.3,2.8-0.7c0.8-0.5,1.5-1,2-1.5H78V265.2z"/>
</svg>
