<?xml version="1.0" encoding="utf-8"?>
<!-- Generator: Adobe Illustrator 19.0.0, SVG Export Plug-In . SVG Version: 6.00 Build 0)  -->
<svg version="1.1" id="Слой_1" xmlns="http://www.w3.org/2000/svg" xmlns:xlink="http://www.w3.org/1999/xlink" x="0px" y="0px"
	 viewBox="0 0 662 146" style="enable-background:new 0 0 662 146;" xml:space="preserve">
<style type="text/css">
	.st0{fill:#FEFEFE;}
</style>
<g id="XMLID_1_">
	<path class="st0" d="M586.2,145.2v-33.7h6.9v-3.8h-18v3.8h6.9v33.7H586.2z M543.8,114.8l9.6,30.3h4.3v-37.5H554v27.1l-8.7-27.1H540
		v37.5h3.8V114.8z M517.1,145.2h4.2v-37.5h-4.2V145.2z M485.7,125.3v-13.9h4.1c3.1,0,4.3,1.8,4.3,5.1v3.6c0,4.1-2,5.1-5.3,5.1H485.7
		z M481.5,107.7v37.5h4.2v-16h2.9c3.5,0,5.5,1.3,5.5,5.6v5.9c0,2.5,0.2,3.5,0.7,4.6h4.2c-0.7-1.3-0.8-2.8-0.8-4.5v-5.8
		c0-4-1.3-6.8-4.7-7.8c3.2-1,4.7-3.6,4.7-7.7v-3.1c0-5.6-2.5-8.6-8.4-8.6H481.5z M451.1,126.6v-15.2h4c3.1,0,4.3,1.7,4.3,5.1v5
		c0,3.6-1.5,5-4.6,5H451.1z M447,107.7v37.5h4.2v-14.8h3.7c5.9,0,8.7-3.1,8.7-9.1v-4.5c0-5.7-2.5-9.2-8.4-9.2H447z M406.7,127.5v10
		c-0.1,2.9-1.8,4.3-4.2,4.3c-2.9,0-4.3-1.8-4.3-5.1v-3.4c0-3.6,1.6-5.6,4.7-5.7H406.7z M408.9,111.5v-3.8h-6.1
		c-5.9,0-8.8,3.3-8.8,9.3v0.9c0,3.8,1.4,6.6,4.4,7.7c-3.1,1.2-4.4,4.1-4.4,7.8v3.6c0,5.3,2.1,8.6,6.8,8.6c2.7,0,4.8-1.2,5.9-3.6
		c0.1,1.6,0.3,2.4,0.7,3.3h4.2c-0.8-1.4-0.8-2.9-0.8-4.8v-12.9h1.8v-3.8h-1.8v-4.2h-4.1v4.2h-4.2c-2.7-0.1-4.3-1.9-4.3-5.1v-1.9
		c0-3.6,1.7-5.3,4.8-5.3H408.9z M344.6,114.8l9.6,30.3h4.3v-37.5h-3.7v27.1l-8.7-27.1h-5.3v37.5h3.8V114.8z M314,107.3
		c-5.7,0-8.4,3.8-8.4,9.4v19.4c0,5.7,2.7,9.4,8.4,9.4c5.8,0,8.5-3.8,8.5-9.4v-11h-7.8v3.8h3.9v7.5c0,3.4-1.3,5.4-4.4,5.4
		c-3,0-4.4-2-4.4-5.4v-19.8c0-3.4,1.4-5.4,4.4-5.4c3.1,0,4.4,2,4.4,5.4v3.4h4v-3.2C322.5,111,319.8,107.3,314,107.3 M283,145.2h4.2
		v-37.5H283V145.2z M256.4,107.3c-5.6,0-8.3,3.6-8.3,9.4c0,10.6,12.5,11.4,12.5,19.7c0,3.4-1.4,5.4-4.4,5.4c-3,0-4.4-2-4.4-5.4V134
		h-3.9v2.1c0,5.7,2.7,9.4,8.4,9.4c5.7,0,8.5-3.7,8.5-9.4c0-10.6-12.6-11.4-12.6-19.8c0-3.3,1.3-5.3,4.3-5.3c3,0,4.3,2,4.3,5.4v1.2h4
		v-1C264.7,111,262.1,107.3,256.4,107.3 M218.9,124.3v-12.8h11.3v-3.8h-15.4v37.5h15.4v-3.8h-11.3V128h9.2v-3.8H218.9z M183.2,141.4
		v-29.9h4.5c3.1,0,4.5,1.9,4.5,5.3v19.3c0,3.4-1.4,5.3-4.4,5.3H183.2z M179,107.7v37.5h8.8c5.8,0,8.5-3.5,8.5-9.3V117
		c0-5.8-2.7-9.3-8.5-9.3H179z M130.9,125.3v-13.9h4.1c3.1,0,4.3,1.8,4.3,5.1v3.6c0,4.1-2,5.1-5.3,5.1H130.9z M126.8,107.7v37.5h4.2
		v-16h2.9c3.5,0,5.5,1.3,5.5,5.6v5.9c0,2.5,0.2,3.5,0.7,4.6h4.2c-0.7-1.3-0.7-2.8-0.7-4.5v-5.8c0-4-1.3-6.8-4.7-7.8
		c3.2-1,4.7-3.6,4.7-7.7v-3.1c0-5.6-2.5-8.6-8.4-8.6H126.8z M98.5,112.4l4.2,21.6h-8.4L98.5,112.4z M103.4,137.6l1.4,7.6h4.2
		l-7.2-37.5h-6.1l-7.2,37.5h3.9l1.4-7.6H103.4z M62.9,107.3c-5.7,0-8.4,3.8-8.4,9.4v19.4c0,5.7,2.7,9.4,8.4,9.4
		c5.8,0,8.5-3.8,8.5-9.4v-4.7h-4v4.9c0,3.4-1.3,5.4-4.4,5.4c-3,0-4.4-2-4.4-5.4v-19.8c0-3.4,1.4-5.4,4.4-5.4c3.1,0,4.4,2,4.4,5.4
		v3.6h4v-3.4C71.3,111,68.7,107.3,62.9,107.3"/>
	<path class="st0" d="M635.6,40.4v-32h8.5c6.4,0,9,3.6,9,10.8v10.5c0,7.6-3.2,10.6-9.7,10.6H635.6z M626.8,0.5v79.1h8.8V48.3h7.8
		c12.5,0,18.4-6.6,18.4-19.1v-9.5c0-12-5.3-19.3-17.7-19.3H626.8z M567.3,10.4l8.9,45.6h-17.6L567.3,10.4z M577.5,63.6l3,15.9h8.8
		L574.2,0.5h-12.8l-15.1,79.1h8.1l3-15.9H577.5z M482.3,37.7V8.5h8.6c6.6,0,9.1,3.7,9.1,10.8v7.6c0,8.6-4.2,10.8-11.2,10.8H482.3z
		 M473.5,0.5v79.1h8.8V45.7h6.2c7.3,0,11.5,2.8,11.5,11.7v12.4c0,5.3,0.5,7.3,1.5,9.6h8.9c-1.5-2.7-1.6-6-1.6-9.5V57.7
		c0-8.5-2.7-14.3-9.9-16.5c6.8-2.1,9.8-7.6,9.8-16.3v-6.4c0-11.7-5.2-18.1-17.6-18.1H473.5z M405.9,25.9l7.6,53.6h11.6l10.7-79.1
		h-7.7l-8.9,67.4l-8.7-67.3h-8.7L393,67.8l-9.3-67.3h-8.6L386,79.5h12.1L405.9,25.9z M317.6,10.4l8.9,45.6h-17.6L317.6,10.4z
		 M327.7,63.6l3,15.9h8.8L324.4,0.5h-12.8l-15.1,79.1h8.1l3-15.9H327.7z M250.4,43.9v35.6h8.8V0.5h-8.8V36H231V0.5h-8.8v79.1h8.8
		V43.9H250.4z M158.1,40.4v-32h8.5c6.4,0,9,3.6,9,10.8v10.5c0,7.6-3.2,10.6-9.7,10.6H158.1z M149.3,0.5v79.1h8.8V48.3h7.8
		c12.5,0,18.4-6.6,18.4-19.1v-9.5c0-12-5.3-19.3-17.7-19.3H149.3z M112.1,79.5v-8H89.5v-71h-8.8v79.1H112.1z M21.2,10.4L30.1,56
		H12.5L21.2,10.4z M31.4,63.6l3,15.9h8.8L28.1,0.5H15.3L0.2,79.5h8.1l3-15.9H31.4z"/>
</g>
</svg>
