
<svg version="1.1" id="el_prvq05Ug-" xmlns="http://www.w3.org/2000/svg" xmlns:xlink="http://www.w3.org/1999/xlink" x="0px" y="0px" viewBox="0 0 317 317" style="enable-background:new 0 0 317 317;" xml:space="preserve">
<style>@-webkit-keyframes kf_el_1M2gVVwiXL_an_pa-WPHTqv{33.33%{-webkit-transform: translate(158.46210098266602px, 155.20000839233398px) scale(0, 0) translate(-158.46210098266602px, -155.20000839233398px);transform: translate(158.46210098266602px, 155.20000839233398px) scale(0, 0) translate(-158.46210098266602px, -155.20000839233398px);}72.22%{-webkit-transform: translate(158.46210098266602px, 155.20000839233398px) scale(1, 1) translate(-158.46210098266602px, -155.20000839233398px);transform: translate(158.46210098266602px, 155.20000839233398px) scale(1, 1) translate(-158.46210098266602px, -155.20000839233398px);}0%{-webkit-transform: translate(158.46210098266602px, 155.20000839233398px) scale(0, 0) translate(-158.46210098266602px, -155.20000839233398px);transform: translate(158.46210098266602px, 155.20000839233398px) scale(0, 0) translate(-158.46210098266602px, -155.20000839233398px);}100%{-webkit-transform: translate(158.46210098266602px, 155.20000839233398px) scale(1, 1) translate(-158.46210098266602px, -155.20000839233398px);transform: translate(158.46210098266602px, 155.20000839233398px) scale(1, 1) translate(-158.46210098266602px, -155.20000839233398px);}}@keyframes kf_el_1M2gVVwiXL_an_pa-WPHTqv{33.33%{-webkit-transform: translate(158.46210098266602px, 155.20000839233398px) scale(0, 0) translate(-158.46210098266602px, -155.20000839233398px);transform: translate(158.46210098266602px, 155.20000839233398px) scale(0, 0) translate(-158.46210098266602px, -155.20000839233398px);}72.22%{-webkit-transform: translate(158.46210098266602px, 155.20000839233398px) scale(1, 1) translate(-158.46210098266602px, -155.20000839233398px);transform: translate(158.46210098266602px, 155.20000839233398px) scale(1, 1) translate(-158.46210098266602px, -155.20000839233398px);}0%{-webkit-transform: translate(158.46210098266602px, 155.20000839233398px) scale(0, 0) translate(-158.46210098266602px, -155.20000839233398px);transform: translate(158.46210098266602px, 155.20000839233398px) scale(0, 0) translate(-158.46210098266602px, -155.20000839233398px);}100%{-webkit-transform: translate(158.46210098266602px, 155.20000839233398px) scale(1, 1) translate(-158.46210098266602px, -155.20000839233398px);transform: translate(158.46210098266602px, 155.20000839233398px) scale(1, 1) translate(-158.46210098266602px, -155.20000839233398px);}}@-webkit-keyframes kf_el_1M2gVVwiXL_an_10nWqwZhU{33.33%{-webkit-transform: translate(158.46210098266602px, 155.20000839233398px) rotate(30deg) translate(-158.46210098266602px, -155.20000839233398px);transform: translate(158.46210098266602px, 155.20000839233398px) rotate(30deg) translate(-158.46210098266602px, -155.20000839233398px);}44.44%{-webkit-transform: translate(158.46210098266602px, 155.20000839233398px) rotate(0deg) translate(-158.46210098266602px, -155.20000839233398px);transform: translate(158.46210098266602px, 155.20000839233398px) rotate(0deg) translate(-158.46210098266602px, -155.20000839233398px);}0%{-webkit-transform: translate(158.46210098266602px, 155.20000839233398px) rotate(30deg) translate(-158.46210098266602px, -155.20000839233398px);transform: translate(158.46210098266602px, 155.20000839233398px) rotate(30deg) translate(-158.46210098266602px, -155.20000839233398px);}100%{-webkit-transform: translate(158.46210098266602px, 155.20000839233398px) rotate(0deg) translate(-158.46210098266602px, -155.20000839233398px);transform: translate(158.46210098266602px, 155.20000839233398px) rotate(0deg) translate(-158.46210098266602px, -155.20000839233398px);}}@keyframes kf_el_1M2gVVwiXL_an_10nWqwZhU{33.33%{-webkit-transform: translate(158.46210098266602px, 155.20000839233398px) rotate(30deg) translate(-158.46210098266602px, -155.20000839233398px);transform: translate(158.46210098266602px, 155.20000839233398px) rotate(30deg) translate(-158.46210098266602px, -155.20000839233398px);}44.44%{-webkit-transform: translate(158.46210098266602px, 155.20000839233398px) rotate(0deg) translate(-158.46210098266602px, -155.20000839233398px);transform: translate(158.46210098266602px, 155.20000839233398px) rotate(0deg) translate(-158.46210098266602px, -155.20000839233398px);}0%{-webkit-transform: translate(158.46210098266602px, 155.20000839233398px) rotate(30deg) translate(-158.46210098266602px, -155.20000839233398px);transform: translate(158.46210098266602px, 155.20000839233398px) rotate(30deg) translate(-158.46210098266602px, -155.20000839233398px);}100%{-webkit-transform: translate(158.46210098266602px, 155.20000839233398px) rotate(0deg) translate(-158.46210098266602px, -155.20000839233398px);transform: translate(158.46210098266602px, 155.20000839233398px) rotate(0deg) translate(-158.46210098266602px, -155.20000839233398px);}}@-webkit-keyframes kf_el_ErP4ftl2f1_an_uVrzL0RpR{55.56%{-webkit-transform: translate(190.3115234375px, 204.1499786376953px) scale(0, 0) translate(-190.3115234375px, -204.1499786376953px);transform: translate(190.3115234375px, 204.1499786376953px) scale(0, 0) translate(-190.3115234375px, -204.1499786376953px);}72.22%{-webkit-transform: translate(190.3115234375px, 204.1499786376953px) scale(1, 1) translate(-190.3115234375px, -204.1499786376953px);transform: translate(190.3115234375px, 204.1499786376953px) scale(1, 1) translate(-190.3115234375px, -204.1499786376953px);}0%{-webkit-transform: translate(190.3115234375px, 204.1499786376953px) scale(0, 0) translate(-190.3115234375px, -204.1499786376953px);transform: translate(190.3115234375px, 204.1499786376953px) scale(0, 0) translate(-190.3115234375px, -204.1499786376953px);}100%{-webkit-transform: translate(190.3115234375px, 204.1499786376953px) scale(1, 1) translate(-190.3115234375px, -204.1499786376953px);transform: translate(190.3115234375px, 204.1499786376953px) scale(1, 1) translate(-190.3115234375px, -204.1499786376953px);}}@keyframes kf_el_ErP4ftl2f1_an_uVrzL0RpR{55.56%{-webkit-transform: translate(190.3115234375px, 204.1499786376953px) scale(0, 0) translate(-190.3115234375px, -204.1499786376953px);transform: translate(190.3115234375px, 204.1499786376953px) scale(0, 0) translate(-190.3115234375px, -204.1499786376953px);}72.22%{-webkit-transform: translate(190.3115234375px, 204.1499786376953px) scale(1, 1) translate(-190.3115234375px, -204.1499786376953px);transform: translate(190.3115234375px, 204.1499786376953px) scale(1, 1) translate(-190.3115234375px, -204.1499786376953px);}0%{-webkit-transform: translate(190.3115234375px, 204.1499786376953px) scale(0, 0) translate(-190.3115234375px, -204.1499786376953px);transform: translate(190.3115234375px, 204.1499786376953px) scale(0, 0) translate(-190.3115234375px, -204.1499786376953px);}100%{-webkit-transform: translate(190.3115234375px, 204.1499786376953px) scale(1, 1) translate(-190.3115234375px, -204.1499786376953px);transform: translate(190.3115234375px, 204.1499786376953px) scale(1, 1) translate(-190.3115234375px, -204.1499786376953px);}}@-webkit-keyframes kf_el_uPgtBo-WnL_an_qPYP0VplF{72.22%{opacity: 0;}100%{opacity: 1;}0%{opacity: 0;}}@keyframes kf_el_uPgtBo-WnL_an_qPYP0VplF{72.22%{opacity: 0;}100%{opacity: 1;}0%{opacity: 0;}}@-webkit-keyframes kf_el_rnobvfNxLS_an_oeOKr1kjG{16.67%{-webkit-transform: translate(158.5000114440918px, 158.5000114440918px) scale(0, 0) translate(-158.5000114440918px, -158.5000114440918px);transform: translate(158.5000114440918px, 158.5000114440918px) scale(0, 0) translate(-158.5000114440918px, -158.5000114440918px);}33.33%{-webkit-transform: translate(158.5000114440918px, 158.5000114440918px) scale(1, 1) translate(-158.5000114440918px, -158.5000114440918px);transform: translate(158.5000114440918px, 158.5000114440918px) scale(1, 1) translate(-158.5000114440918px, -158.5000114440918px);}0%{-webkit-transform: translate(158.5000114440918px, 158.5000114440918px) scale(0, 0) translate(-158.5000114440918px, -158.5000114440918px);transform: translate(158.5000114440918px, 158.5000114440918px) scale(0, 0) translate(-158.5000114440918px, -158.5000114440918px);}100%{-webkit-transform: translate(158.5000114440918px, 158.5000114440918px) scale(1, 1) translate(-158.5000114440918px, -158.5000114440918px);transform: translate(158.5000114440918px, 158.5000114440918px) scale(1, 1) translate(-158.5000114440918px, -158.5000114440918px);}}@keyframes kf_el_rnobvfNxLS_an_oeOKr1kjG{16.67%{-webkit-transform: translate(158.5000114440918px, 158.5000114440918px) scale(0, 0) translate(-158.5000114440918px, -158.5000114440918px);transform: translate(158.5000114440918px, 158.5000114440918px) scale(0, 0) translate(-158.5000114440918px, -158.5000114440918px);}33.33%{-webkit-transform: translate(158.5000114440918px, 158.5000114440918px) scale(1, 1) translate(-158.5000114440918px, -158.5000114440918px);transform: translate(158.5000114440918px, 158.5000114440918px) scale(1, 1) translate(-158.5000114440918px, -158.5000114440918px);}0%{-webkit-transform: translate(158.5000114440918px, 158.5000114440918px) scale(0, 0) translate(-158.5000114440918px, -158.5000114440918px);transform: translate(158.5000114440918px, 158.5000114440918px) scale(0, 0) translate(-158.5000114440918px, -158.5000114440918px);}100%{-webkit-transform: translate(158.5000114440918px, 158.5000114440918px) scale(1, 1) translate(-158.5000114440918px, -158.5000114440918px);transform: translate(158.5000114440918px, 158.5000114440918px) scale(1, 1) translate(-158.5000114440918px, -158.5000114440918px);}}@-webkit-keyframes kf_el_JBLBeEqRsR_an_zVNyTyCQW{0%{-webkit-transform: translate(158.5px, 158.5px) scale(0, 0) translate(-158.5px, -158.5px);transform: translate(158.5px, 158.5px) scale(0, 0) translate(-158.5px, -158.5px);}11.11%{-webkit-transform: translate(158.5px, 158.5px) scale(1, 1) translate(-158.5px, -158.5px);transform: translate(158.5px, 158.5px) scale(1, 1) translate(-158.5px, -158.5px);}100%{-webkit-transform: translate(158.5px, 158.5px) scale(1, 1) translate(-158.5px, -158.5px);transform: translate(158.5px, 158.5px) scale(1, 1) translate(-158.5px, -158.5px);}}@keyframes kf_el_JBLBeEqRsR_an_zVNyTyCQW{0%{-webkit-transform: translate(158.5px, 158.5px) scale(0, 0) translate(-158.5px, -158.5px);transform: translate(158.5px, 158.5px) scale(0, 0) translate(-158.5px, -158.5px);}11.11%{-webkit-transform: translate(158.5px, 158.5px) scale(1, 1) translate(-158.5px, -158.5px);transform: translate(158.5px, 158.5px) scale(1, 1) translate(-158.5px, -158.5px);}100%{-webkit-transform: translate(158.5px, 158.5px) scale(1, 1) translate(-158.5px, -158.5px);transform: translate(158.5px, 158.5px) scale(1, 1) translate(-158.5px, -158.5px);}}#el_prvq05Ug- *{-webkit-animation-duration: 3s;animation-duration: 3s;-webkit-animation-iteration-count: 1;animation-iteration-count: 1;-webkit-animation-timing-function: cubic-bezier(0, 0, 1, 1);animation-timing-function: cubic-bezier(0, 0, 1, 1);}#el_JBLBeEqRsR{fill-rule: evenodd;clip-rule: evenodd;}#el__vNnOuiI6P{fill: #FF003E;}#el_wn7Bi2CnkM{fill-rule: evenodd;clip-rule: evenodd;}#el_GhDBw4bqqv{fill-rule: evenodd;clip-rule: evenodd;}#el_IIIQw9F2C7{fill-rule: evenodd;clip-rule: evenodd;}#el_1f3y8zvOg8{fill-rule: evenodd;clip-rule: evenodd;}#el_0kaaI07FQO{fill-rule: evenodd;clip-rule: evenodd;}#el_Fjx8ziep7F{fill-rule: evenodd;clip-rule: evenodd;}#el_EEjC7jiisD{fill-rule: evenodd;clip-rule: evenodd;}#el_JBLBeEqRsR_an_zVNyTyCQW{-webkit-animation-fill-mode: forwards;animation-fill-mode: forwards;-webkit-transform: translate(158.5px, 158.5px) scale(0, 0) translate(-158.5px, -158.5px);transform: translate(158.5px, 158.5px) scale(0, 0) translate(-158.5px, -158.5px);-webkit-animation-name: kf_el_JBLBeEqRsR_an_zVNyTyCQW;animation-name: kf_el_JBLBeEqRsR_an_zVNyTyCQW;-webkit-animation-timing-function: cubic-bezier(0, 0, 1, 1);animation-timing-function: cubic-bezier(0, 0, 1, 1);}#el_rnobvfNxLS_an_oeOKr1kjG{-webkit-animation-fill-mode: forwards;animation-fill-mode: forwards;-webkit-transform: translate(158.5000114440918px, 158.5000114440918px) scale(0, 0) translate(-158.5000114440918px, -158.5000114440918px);transform: translate(158.5000114440918px, 158.5000114440918px) scale(0, 0) translate(-158.5000114440918px, -158.5000114440918px);-webkit-animation-name: kf_el_rnobvfNxLS_an_oeOKr1kjG;animation-name: kf_el_rnobvfNxLS_an_oeOKr1kjG;-webkit-animation-timing-function: cubic-bezier(0, 0, 1, 1);animation-timing-function: cubic-bezier(0, 0, 1, 1);}#el_uPgtBo-WnL{-webkit-animation-fill-mode: forwards;animation-fill-mode: forwards;opacity: 0;-webkit-animation-name: kf_el_uPgtBo-WnL_an_qPYP0VplF;animation-name: kf_el_uPgtBo-WnL_an_qPYP0VplF;-webkit-animation-timing-function: cubic-bezier(0, 0, 1, 1);animation-timing-function: cubic-bezier(0, 0, 1, 1);}#el_ErP4ftl2f1_an_uVrzL0RpR{-webkit-animation-fill-mode: forwards;animation-fill-mode: forwards;-webkit-transform: translate(190.3115234375px, 204.1499786376953px) scale(0, 0) translate(-190.3115234375px, -204.1499786376953px);transform: translate(190.3115234375px, 204.1499786376953px) scale(0, 0) translate(-190.3115234375px, -204.1499786376953px);-webkit-animation-name: kf_el_ErP4ftl2f1_an_uVrzL0RpR;animation-name: kf_el_ErP4ftl2f1_an_uVrzL0RpR;-webkit-animation-timing-function: cubic-bezier(0, 0, 1, 1);animation-timing-function: cubic-bezier(0, 0, 1, 1);}#el_1M2gVVwiXL_an_10nWqwZhU{-webkit-animation-fill-mode: forwards;animation-fill-mode: forwards;-webkit-transform: translate(158.46210098266602px, 155.20000839233398px) rotate(30deg) translate(-158.46210098266602px, -155.20000839233398px);transform: translate(158.46210098266602px, 155.20000839233398px) rotate(30deg) translate(-158.46210098266602px, -155.20000839233398px);-webkit-animation-name: kf_el_1M2gVVwiXL_an_10nWqwZhU;animation-name: kf_el_1M2gVVwiXL_an_10nWqwZhU;-webkit-animation-timing-function: cubic-bezier(0, 0, 1, 1);animation-timing-function: cubic-bezier(0, 0, 1, 1);}#el_1M2gVVwiXL_an_pa-WPHTqv{-webkit-animation-fill-mode: forwards;animation-fill-mode: forwards;-webkit-transform: translate(158.46210098266602px, 155.20000839233398px) scale(0, 0) translate(-158.46210098266602px, -155.20000839233398px);transform: translate(158.46210098266602px, 155.20000839233398px) scale(0, 0) translate(-158.46210098266602px, -155.20000839233398px);-webkit-animation-name: kf_el_1M2gVVwiXL_an_pa-WPHTqv;animation-name: kf_el_1M2gVVwiXL_an_pa-WPHTqv;-webkit-animation-timing-function: cubic-bezier(0, 0, 1, 1);animation-timing-function: cubic-bezier(0, 0, 1, 1);}</style>

<g id="el_JBLBeEqRsR_an_zVNyTyCQW" data-animator-group="true" data-animator-type="2"><circle id="el_JBLBeEqRsR" cx="158.5" cy="158.5" r="157.7"/></g>
<g id="el_rnobvfNxLS_an_oeOKr1kjG" data-animator-group="true" data-animator-type="2"><g id="el_rnobvfNxLS">
	<path id="el__vNnOuiI6P" d="M298.7,158.5c0,77.4-62.8,140.2-140.2,140.2S18.3,235.9,18.3,158.5S81.1,18.3,158.5,18.3&#10;&#9;&#9;S298.7,81.1,298.7,158.5z"/>
</g></g>
<path d="M241.6,248.6h2c0.8,0,1.4-0.1,1.9-0.4c0.5-0.3,0.7-0.8,0.7-1.6c0-0.8-0.2-1.3-0.7-1.6c-0.5-0.3-1.1-0.4-1.9-0.4h-2V248.6z&#10;&#9; M236,252.4v-19.1h0.3h5.3v7.4h2.8c0.4,0,0.9,0,1.5,0.1c0.6,0,1.3,0.2,1.9,0.4c1,0.3,1.9,0.8,2.8,1.6c0.8,0.8,1.3,2.1,1.3,3.8&#10;&#9;c0,1.7-0.4,3-1.3,3.8c-0.8,0.8-1.8,1.4-2.8,1.6c-0.7,0.2-1.3,0.3-2,0.4c-0.6,0-1.1,0.1-1.5,0.1h-0.3H236z M233.3,251.5&#10;&#9;c-0.4,0.3-0.8,0.5-1.1,0.6c-0.4,0.2-0.8,0.3-1.1,0.4c-0.5,0.1-1,0.2-1.5,0.3c-0.5,0-0.9,0.1-1.4,0.1l-0.3,0c-2.7,0-5-0.9-6.9-2.7&#10;&#9;c-1.9-1.8-2.9-4.2-2.9-7.4c0-3.3,1-5.8,3-7.5c2-1.7,4.2-2.5,6.7-2.5h0.3c0.3,0,0.7,0,1,0.1c0.3,0,0.7,0.1,1.1,0.2&#10;&#9;c0.5,0.1,1.1,0.3,1.6,0.5c0.5,0.2,1.1,0.5,1.5,0.8v5.5H233c-0.1-0.1-0.2-0.3-0.4-0.4c-0.1-0.1-0.3-0.3-0.5-0.5&#10;&#9;c-0.4-0.3-0.9-0.7-1.5-1c-0.6-0.3-1.3-0.4-2-0.5c-1.5,0-2.7,0.6-3.5,1.7c-0.8,1.1-1.3,2.3-1.3,3.8c0,1.6,0.5,2.9,1.4,3.8&#10;&#9;c0.9,0.9,2,1.3,3.3,1.4c1,0,1.8-0.3,2.5-0.7c0.7-0.4,1.3-0.9,1.8-1.4h0.3V251.5z M204.4,252.4v-19.1h0.3h11.4v4.6H210v2.7h5.5v4.2&#10;&#9;H210v3.1h6.1v4.6h-0.3H204.4z M191,237.9v4.5c0,1.2-0.1,2.3-0.3,3.2c-0.2,0.9-0.8,1.7-1.7,2.2h5.6v-9.9H191z M186.1,233.3h14.1v14.5&#10;&#9;h2.3v8.4h-0.3h-4.6v-3.8h-10.7v3.8h-0.3H182v-8.4c0.1,0,0.2,0,0.3,0c0.1,0,0.2,0,0.3,0c0.8-0.1,1.5-0.6,2.1-1.2&#10;&#9;c0.7-0.7,1-1.7,1.1-3.1c0-0.2,0-0.4,0-0.7c0-0.2,0-0.5,0-0.7c0-0.1,0-0.1,0-0.2c0-0.1,0-0.1,0-0.2v-8.3H186.1z M169.4,240.8h3&#10;&#9;c0.9,0,1.6-0.1,2-0.4c0.4-0.3,0.7-0.6,0.8-0.9c0-0.1,0.1-0.2,0.1-0.3c0-0.1,0-0.2,0-0.3c0-0.6-0.2-1-0.7-1.4&#10;&#9;c-0.5-0.3-1.1-0.5-1.9-0.5c-0.5,0-1,0.1-1.5,0.2c-0.4,0.1-0.9,0.3-1.3,0.5c-0.2,0.1-0.3,0.2-0.5,0.2c-0.2,0.1-0.3,0.2-0.5,0.3h-0.3&#10;&#9;l-1.9-3.7c0.2-0.1,0.4-0.2,0.6-0.3c0.3-0.1,0.6-0.3,0.9-0.4c0.6-0.3,1.3-0.5,2.1-0.7c0.8-0.2,1.7-0.3,2.8-0.3h0.3&#10;&#9;c2.2,0,4,0.5,5.3,1.5c1.3,1,2,2.3,2,3.9c0,1-0.3,1.9-0.9,2.6c-0.6,0.8-1.3,1.3-2.3,1.7v0.1c0.1,0,0.2,0,0.3,0.1&#10;&#9;c0.1,0,0.2,0.1,0.3,0.1c0.8,0.3,1.5,0.8,2.1,1.5c0.6,0.7,0.9,1.6,0.9,2.9c0,1.9-0.8,3.3-2.3,4.3c-1.5,1-3.3,1.5-5.4,1.5l-0.3,0&#10;&#9;c-0.6,0-1.1-0.1-1.6-0.1c-0.5-0.1-1-0.1-1.5-0.3c-0.7-0.2-1.3-0.5-2-0.9c-0.7-0.4-1.5-0.9-2.4-1.6l2.2-3.5h0.3&#10;&#9;c0.4,0.4,0.8,0.7,1.2,1c0.4,0.3,0.9,0.5,1.3,0.7c0.3,0.1,0.7,0.2,1,0.3c0.3,0.1,0.6,0.1,1,0.1c0.8,0,1.4-0.2,1.7-0.5&#10;&#9;c0.4-0.3,0.6-0.6,0.8-1c0.1-0.1,0.1-0.2,0.1-0.3c0-0.1,0-0.2,0-0.3c0-0.5-0.2-1-0.7-1.4c-0.4-0.4-1.2-0.6-2.4-0.6h-3V240.8z&#10;&#9; M144.8,248.6h2c0.8,0,1.4-0.1,1.9-0.4c0.5-0.3,0.7-0.8,0.7-1.6c0-0.8-0.2-1.3-0.7-1.6c-0.5-0.3-1.1-0.4-1.9-0.4h-2V248.6z&#10;&#9; M139.1,252.4v-19.1h0.3h5.3v7.4h2.8c0.4,0,0.9,0,1.5,0.1c0.6,0,1.3,0.2,1.9,0.4c1,0.3,1.9,0.8,2.8,1.6c0.8,0.8,1.3,2.1,1.3,3.8&#10;&#9;c0,1.7-0.4,3-1.3,3.8c-0.8,0.8-1.8,1.4-2.8,1.6c-0.7,0.2-1.3,0.3-2,0.4c-0.6,0-1.1,0.1-1.5,0.1h-0.3H139.1z M121.2,233.3h14.5v19.1&#10;&#9;h-0.3h-5.3v-14.5h-3.5v7.5c0,0.4,0,0.8,0,1.3c0,0.5-0.1,1-0.2,1.4c-0.2,1.1-0.8,2.1-1.8,3.1c-0.9,0.9-2.6,1.4-4.9,1.4l-0.3,0&#10;&#9;c-0.3,0-0.5,0-0.8,0c-0.2,0-0.5,0-0.7-0.1c-0.1,0-0.3,0-0.4-0.1c-0.1,0-0.3,0-0.4-0.1v-4.6h0.3c0.2,0.1,0.4,0.1,0.5,0.1&#10;&#9;c0.2,0,0.3,0,0.5,0.1c1.2,0,1.9-0.5,2.1-1.3c0.2-0.8,0.4-1.8,0.4-2.9v-10.5H121.2z M97.6,233.3h5.2v11l7.1-11h0.3h5.2v19.1h-0.3H110&#10;&#9;v-11l-7,11h-0.3h-5.3v-19.1H97.6z M85.6,252.4v-14.5h-4.2v-4.6h0.3h13.7v4.6h-4.2v14.5H91H85.6z M80.3,251.5&#10;&#9;c-0.4,0.3-0.8,0.5-1.1,0.6c-0.4,0.2-0.8,0.3-1.1,0.4c-0.5,0.1-1,0.2-1.5,0.3c-0.5,0-0.9,0.1-1.4,0.1l-0.3,0c-2.7,0-5-0.9-6.9-2.7&#10;&#9;c-1.9-1.8-2.9-4.2-2.9-7.4c0-3.3,1-5.8,3-7.5c2-1.7,4.2-2.5,6.7-2.5h0.3c0.3,0,0.7,0,1,0.1c0.3,0,0.7,0.1,1.1,0.2&#10;&#9;c0.5,0.1,1.1,0.3,1.6,0.5c0.5,0.2,1,0.5,1.5,0.8v5.5H80c-0.1-0.1-0.2-0.3-0.4-0.4c-0.1-0.1-0.3-0.3-0.5-0.5c-0.4-0.3-0.9-0.7-1.5-1&#10;&#9;c-0.6-0.3-1.3-0.4-2-0.5c-1.5,0-2.7,0.6-3.5,1.7c-0.8,1.1-1.3,2.3-1.3,3.8c0,1.6,0.5,2.9,1.4,3.8c0.9,0.9,2,1.3,3.3,1.4&#10;&#9;c1,0,1.8-0.3,2.5-0.7c0.7-0.4,1.3-0.9,1.8-1.4h0.3V251.5z" id="el_uPgtBo-WnL"/>
<g id="el_ErP4ftl2f1_an_uVrzL0RpR" data-animator-group="true" data-animator-type="2"><g id="el_ErP4ftl2f1">
	<path id="el_wn7Bi2CnkM" d="M173.9,194.2c0,0.6-0.4,1-1,1c-0.1,0-0.3,0-1.1-0.6c-0.1-0.1-0.2-0.1-0.3-0.2&#10;&#9;&#9;c-2,5.4-3.7,9.1-5.2,11.1c-0.6,0.9-1.3,1.3-2,1.3c-0.2,0-0.6,0-1.8-0.4c-1.1-0.4-1.4-0.6-1.5-0.7c-0.1-0.1-0.4-0.4-0.6-1.5&#10;&#9;&#9;c-0.6-2.5-1-4.6-1.1-6.3c-0.8,1.1-2,2.5-3.5,4.3c-1.8,2.1-2.8,3.4-3.2,4c-0.3,0.4-0.6,0.6-1.1,0.6c-0.5,0-1.3-0.4-2.3-1.2&#10;&#9;&#9;c-0.3-0.2-0.5-0.5-0.5-0.7c0-0.3,0.3-0.7,1.1-1.3c0.5-1.5,1-3.6,1.4-6c0.4-2.4,0.6-4.5,0.6-6.2c0-0.5,0-1-0.1-1.4&#10;&#9;&#9;c-0.4,0.5-1,1.2-1.7,2.1c-0.3,0.4-0.6,0.5-0.9,0.5c-0.5,0-0.8-0.3-0.8-0.8c0-0.2,0.1-0.4,0.2-0.6c0.5-0.6,1.2-1.7,2.1-3.1&#10;&#9;&#9;c0.3-0.6,0.8-1,1.3-1.2c0.1,0,0.2-0.1,1.9-0.5c0.3-0.1,0.6-0.1,0.8-0.1c0.4,0,0.7,0.3,0.8,0.7c0,0.2,0.1,0.5,0.1,1.7&#10;&#9;&#9;c0,4.5-0.5,8.6-1.4,12.1c2.5-2.6,4.2-5.1,5.2-7.5c0.1-1.5,0.2-2.5,0.4-3.2c0.2-1.1,0.6-2.1,1.1-2.9c0.4-0.8,1-1.2,1.5-1.2&#10;&#9;&#9;c0.5,0,1.1,0.3,2,0.9c0.5,0.4,0.8,0.7,0.8,1.1c0,0.1,0,0.4-0.4,1.4c-0.5,1.3-1.1,2.5-1.8,3.5c-0.1,1-0.2,2.1-0.2,3.2&#10;&#9;&#9;c0,2.3,0.3,4.8,1,7.3c0.2,0.8,0.4,0.8,0.4,0.8c0,0,0.3,0,0.8-1.1c2.4-4.5,3.8-7.9,4.4-10.2c-0.2-0.2-0.4-0.5-0.6-0.8&#10;&#9;&#9;c-0.3-0.4-0.4-0.8-0.4-1.2c0-0.4,0.1-0.8,0.3-1.2l0.5-2.2c0.3-1.1,0.8-1.7,1.6-1.7c0.5,0,1.2,0.2,2.1,0.7c0.6,0.3,0.9,0.9,0.9,1.7&#10;&#9;&#9;c0,0.6-0.2,1.3-0.6,2.3c-0.3,0.6-0.5,1.2-0.8,1.8c0.2,0.2,0.5,0.5,1.2,1.1C173.8,193.5,173.9,193.8,173.9,194.2z"/>
	<path id="el_GhDBw4bqqv" d="M191.4,187.8c0,2.1-0.3,4.2-0.9,6.1c-0.2,0.7-0.6,1.1-1,1.1c-0.2,0-0.6-0.1-1.7-1&#10;&#9;&#9;c-0.3-0.3-0.7-0.8-0.4-1.7c0.4-1.4,0.7-2.6,0.7-3.4v-0.1c-0.1,0.1-0.3,0.3-0.6,0.7c-3.4,4.3-5.9,9.2-7.5,14.5&#10;&#9;&#9;c-0.8,2.4-1.2,2.8-1.6,2.8c-0.1,0-0.3,0-2.1-0.9c-0.5-0.2-1-0.8-0.7-1.9c1.1-4.9,2.4-9.1,3.6-12.7c-0.6,0.7-1,1.1-1.2,1.4&#10;&#9;&#9;c-0.2,0.3-0.5,0.4-0.8,0.4c-0.4,0-0.7-0.3-0.7-0.7c0-0.2,0.1-0.4,0.3-0.7c0.8-1,1.9-2.4,3.2-4.3c0.5-0.8,0.9-1.2,1.5-1.2&#10;&#9;&#9;c0.2,0,0.7,0.1,1.9,0.7c0.3,0.2,0.5,0.4,0.6,0.7c0.1,0.3,0,0.5-0.3,0.8c-0.2,0.3-0.8,1.4-2,4.8c-0.4,1.1-0.7,2.2-1,3.1&#10;&#9;&#9;c1.8-3.6,3.9-6.9,6.1-9.8c0.6-0.8,1.1-1.2,1.5-1.2c0.4,0,0.8,0.2,1.3,0.6c0.9,0.1,1.2,0.3,1.4,0.4&#10;&#9;&#9;C191.3,186.7,191.4,187.1,191.4,187.8z"/>
	<path id="el_IIIQw9F2C7" d="M210.2,188.8c-0.1-0.3-0.3-0.6-0.7-0.9c-1.3-0.9-1.7-1-1.9-1c-0.5,0-0.8,0.7-1,1.3&#10;&#9;&#9;c0,0.1,0,0.1-0.1,0.2c0-0.2-0.1-0.3-0.3-0.4c-2.3-2.1-3.1-2.4-3.6-2.4c-0.7,0-1.4,0.4-2.2,1.1c-2.4,2.2-4.5,4.9-6.3,8&#10;&#9;&#9;c-1.8,3.2-2.9,6-3.2,8.4c0,0.2-0.1,0.4-0.1,0.6c0,1,0.5,1.8,1.4,2.4c0.7,0.5,1.2,0.8,1.5,0.8c0.4,0,1-0.3,1.7-0.8&#10;&#9;&#9;c1-0.7,2.5-2.2,4.7-4.6c1.8-2,3.3-3.9,4.5-5.6c-0.7,2.3-1.3,5-1.8,8c-0.1,0.6-0.1,1,0,1.2c0.1,0.3,0.4,0.5,0.9,0.9&#10;&#9;&#9;c1.1,0.7,1.5,0.8,1.7,0.8c0.7,0,0.9-0.9,1-1.2c0.5-2.2,1.5-4.5,3-6.7c0.2-0.3,0.3-0.5,0.3-0.7c0-0.4-0.3-0.7-0.7-0.7&#10;&#9;&#9;c-0.4,0-0.7,0.2-0.9,0.5c0,0-0.2,0.1-0.8,0.9c-0.1,0.1-0.1,0.2-0.2,0.2c0.6-2.6,1.6-5.6,2.8-9.2&#10;&#9;&#9;C210.1,189.5,210.2,189.1,210.2,188.8z M205.7,190.3c-0.6,1.4-2,3.4-4.1,6.2c-2.1,2.6-4,4.8-5.8,6.6c-0.7,0.7-1.3,1-1.8,1&#10;&#9;&#9;c-0.1,0-0.2,0-0.2-0.3c0-0.1,0-0.2,0-0.3c0.4-2.5,1.7-5.4,3.8-8.5c1.8-2.8,3.5-4.7,5-5.8c0.3-0.2,0.7-0.3,1.1-0.3&#10;&#9;&#9;c0.4,0,0.9,0.1,1.4,0.3c0.2,0.1,0.3,0.1,0.5,0.1c0.2,0,0.4,0,0.5-0.1C206.1,189.5,205.9,189.8,205.7,190.3z"/>
	<path id="el_1f3y8zvOg8" d="M232.3,191.1c-0.2,2.7-0.9,5.7-2.2,8.8c-1.2,2.9-2.4,5-3.5,6c-0.7,0.7-1.4,1-2.2,1&#10;&#9;&#9;c-0.8,0-2.1-0.6-3.9-1.8c-0.4-0.3-0.7-0.6-0.7-1c0-0.2,0.1-0.8,1-0.8c0.2,0,0.5,0.1,0.9,0.2c0.3,0.1,0.6,0.1,0.7,0.1&#10;&#9;&#9;c1.1,0,2-0.7,2.9-2.1c0.8-1.3,1.5-3,2.2-5.1c0.8-2.6,1.2-4.9,1.1-6.8c-0.1-1.1-0.5-1.1-0.6-1.1c-0.4,0-1,0.3-1.7,1&#10;&#9;&#9;c-5.2,4.9-8.9,10.9-11,17.7c-1.2,3.9-2,7.6-2.4,10.9c0,0.1-0.1,0.8-0.7,8.3c0,0.4-0.1,1.5-0.9,1.5c-0.3,0-0.8-0.2-2-1.3&#10;&#9;&#9;c-0.7-0.6-1-1.5-0.8-2.4c0.7-8,2.7-17,5.9-26.7c2.5-7.7,4.5-12.7,6-15c0.9-1.4,1.8-2.1,2.5-2.1c0.8,0,2.1,0.6,4.1,1.9&#10;&#9;&#9;c0.4,0.2,0.5,0.5,0.5,0.8c0,0.2-0.1,0.7-0.9,0.7c-0.1,0-0.3,0-0.5-0.1c-0.2,0-0.3,0-0.5,0c-0.9,0-1.9,0.8-2.9,2.4&#10;&#9;&#9;c-0.6,1-1.5,2.6-2.4,4.9c-0.5,1.3-1,2.4-1.4,3.4c2.1-3,4.5-5.7,7.1-8c0.5-0.5,1-0.7,1.5-0.7c0.2,0,0.5,0.1,1.5,0.8&#10;&#9;&#9;C231.4,187.3,232.5,188.8,232.3,191.1z"/>
</g></g>
<g id="el_1M2gVVwiXL_an_10nWqwZhU" data-animator-group="true" data-animator-type="1"><g id="el_1M2gVVwiXL_an_pa-WPHTqv" data-animator-group="true" data-animator-type="2"><g id="el_1M2gVVwiXL">
	<path id="el_0kaaI07FQO" d="M276.6,151.8c-0.1-1.5-0.8-2.3-2-2.3c-0.4,0-1,0.4-1.7,1.3c-0.7,0.8-1.5,1.9-2.5,3.2&#10;&#9;&#9;c-1,1.3-2,2.7-3,4.2s-2.1,2.9-3.2,4.2c-1,1.3-2.1,2.3-3.2,3.2c-1.1,0.8-2,1.3-2.9,1.3c-1.3,0-2-0.8-1.9-2.3&#10;&#9;&#9;c0.1-1.5,0.5-3.2,1.3-5.2c0.8-2,1.7-3.9,2.9-5.8c1.1-1.9,2.1-3.2,3-4.1c0.5-0.5,0.7-1,0.6-1.5c-0.1-0.5-0.3-0.9-0.7-1.4&#10;&#9;&#9;c-0.4-0.4-1-0.8-1.6-1.2c-0.7-0.4-1.4-0.7-2.3-0.9c0.8-1,1.4-2.2,1.9-3.5c0.5-1.4,0.7-3,0.7-4.8c0-0.8-0.1-1.6-0.4-2.5&#10;&#9;&#9;c-0.3-0.9-0.8-1.7-1.5-2.5c-0.7-0.7-1.6-1.3-2.8-1.8c-1.1-0.5-2.6-0.7-4.3-0.7c-1.7,0-4.1,0.6-7.3,1.9c-3.1,1.3-6.3,3.2-9.4,5.8&#10;&#9;&#9;c-3.1,2.6-5.8,6-8.1,10c-1.3,2.3-2.2,4.9-2.8,7.7c-0.9,1.2-1.8,2.4-2.9,3.8c-1.1,1.5-2.2,2.9-3.3,4.2c-1.1,1.3-2.1,2.4-3,3.2&#10;&#9;&#9;c-0.6,0.5-1,0.9-1.5,1.1c0,0.2,0.1,0.4,0.3,0.5c0.3,0.4,0.9,0.7,1.6,1c-0.7,0.3-1.5,0.4-2.3,0c-0.4-0.2-1.9-0.8-1.9-3.1&#10;&#9;&#9;c0-3.3,2.1-7.7,2.4-8.5c0.7-2,1.5-3.9,2.2-6c0.7-2,1.4-4,2-6c0.6-2,0.8-3.8,0.8-5.4c0-3.2-0.7-5.6-2-7.2c-1.3-1.6-3-2.5-5-2.8&#10;&#9;&#9;c-2-0.2-4.2,0.1-6.6,1.1c-2.4,1-4.6,2.4-6.6,4.3c1.3-3.1,2.8-6.3,4.3-9.8s3.3-7.2,5.4-11.2c0.4-0.8,0.2-1.7-0.5-2.6&#10;&#9;&#9;c-0.8-0.9-1.8-1.7-2.9-2.4c-1.2-0.7-2.4-1.3-3.6-1.8c-1.2-0.5-2-0.7-2.4-0.7c-0.8,0-1.8,1.1-3.2,3.2c-1.4,2.1-2.9,4.9-4.5,8.4&#10;&#9;&#9;c-1.7,3.5-3.4,7.4-5.1,11.8c-1.7,4.4-3.3,8.9-4.7,13.5c-1.4,4.6-2.6,9.1-3.5,13.5c-1,4.4-1.4,8.3-1.4,11.7c0,2,0.3,3.6,0.8,5&#10;&#9;&#9;c0.5,1.4,1.2,2.5,2.1,3.4c0.9,0.9,1.9,1.5,3.2,1.9c1.2,0.4,2.5,0.6,3.9,0.6c0.5,0,0.8-0.1,1.1-0.4c0.2-0.3,0.3-0.7,0.4-1.3&#10;&#9;&#9;s0.1-1.5,0.2-2.6c0-1.1,0.1-2.4,0.3-4c0.1-1.3,0.3-2.5,0.4-3.5c0.1-1,0.3-2.1,0.5-3c0.2-1,0.5-2,0.7-3c0.3-1,0.6-2.2,1-3.5&#10;&#9;&#9;c0.7-2.4,1.6-4.8,2.6-7.2c1-2.4,2.2-4.6,3.4-6.5c0.6-0.9,1.2-1.8,1.8-2.5c0-0.1,0.1-0.1,0.1-0.2c0.7-1,1.5-2,2.6-2.7&#10;&#9;&#9;c1.1-0.8,2.5-1.4,4-1.2c0.8,0.1,1.5,0.5,2,1c0.5,0.6,0.8,1.2,0.7,1.9c-0.5-0.5-1-0.7-1.4-0.9c-0.3-0.1-0.5-0.1-0.8-0.1&#10;&#9;&#9;c-0.1,0.9-0.4,1.9-0.8,3.2c-0.5,1.6-1.2,3.4-2,5.4c-0.8,2.1-1.6,4.2-2.4,6.5c-0.8,2.3-1.5,4.6-2.1,6.9c-0.6,2.3-0.8,4.6-0.8,6.7&#10;&#9;&#9;c0,1.5,0.2,2.9,0.6,4.4c0.4,1.5,1,2.8,1.7,4c0.7,1.2,1.6,2.2,2.7,2.9c1.1,0.7,2.2,1.1,3.5,1.1c2.8,0,5.4-0.8,8-2.3&#10;&#9;&#9;c2.6-1.5,5-3.4,7.1-5.7c1.2-1.3,2.3-2.6,3.3-4c0,0.1,0.1,0.3,0.1,0.4c0.6,2,1.4,3.8,2.4,5.1c1,1.4,2.1,2.3,3.3,3&#10;&#9;&#9;c1.2,0.6,2.4,0.9,3.6,0.9c1.1,0,2.3-0.5,3.5-1.5c1.2-1,2.3-2,3.3-3.2c1.2-1.4,2.3-3,3.4-4.8c-0.2,2.2-0.1,4.3,0.3,6.1&#10;&#9;&#9;c0.3,1.5,1,2.9,2,4.1c1,1.2,2.5,1.8,4.5,1.8c2.8,0,5.4-0.8,7.9-2.3c2.5-1.5,4.9-3.4,6.9-5.7c2.1-2.3,3.9-4.7,5.4-7.4&#10;&#9;&#9;c1.5-2.7,2.7-5.1,3.4-7.4C276.5,155.2,276.8,153.3,276.6,151.8z M254.4,139.5c-0.3,0.6-0.8,1.3-1.4,2c-0.7,0.7-1.3,1.5-2,2.2&#10;&#9;&#9;c-0.6,0.7-1.2,1.4-1.7,2c-0.5,0.6-0.7,1.1-0.7,1.5c0,0.6,0.1,1,0.4,1.3c0.3,0.3,0.6,0.5,1,0.7c-0.6,1.4-1.3,2.9-1.9,4.5&#10;&#9;&#9;c-0.6,1.6-1.3,3.1-2.1,4.5c-0.8,1.4-1.6,2.6-2.6,3.5c-0.9,0.9-2,1.4-3.2,1.4c0,0-0.1,0-0.1,0c0,0.2,0,0.4,0.1,0.5&#10;&#9;&#9;c0.1,0.5,0.3,1,0.9,1.3c-0.3,0.1-0.7,0.2-1.1,0c-0.4-0.1-0.7-0.4-1-0.6c-0.5-0.5-0.8-1.1-1.1-1.8c-0.2-0.4-0.3-0.7-0.4-1.1&#10;&#9;&#9;c0-0.1-0.1-0.2-0.1-0.2c-0.5-1.3-0.6-2.8-0.4-4.8c0.2-1.9,0.8-4,1.6-6.2s2-4.3,3.4-6.2c1.4-1.9,3-3.5,4.8-4.8&#10;&#9;&#9;c1.8-1.3,3.8-1.9,5.9-1.9c1,0,1.6,0.2,1.8,0.6C254.7,138.4,254.7,138.9,254.4,139.5z"/>
	<path id="el_Fjx8ziep7F" d="M179,132.6c-0.3-1.1-0.9-2.2-1.5-3.2c-0.7-1-1.5-1.8-2.5-2.5c-1-0.7-2.1-1-3.4-0.9&#10;&#9;&#9;c-1.8,0.1-3.5,0.6-5.2,1.7s-3.2,2.2-4.7,3.5c-1.6,1.5-3.2,3.2-4.7,5.1c0.6-1,0.6-2-0.1-2.8c-0.7-0.8-1.6-1.5-2.7-1.9&#10;&#9;&#9;c-1.1-0.5-2.3-0.9-3.5-1.1c-1.2-0.3-2-0.4-2.4-0.4c-0.8,0-1.8,1-3.1,2.9c-1.3,1.9-2.7,4.5-4.3,7.9c-1.5,3.3-3.1,7.3-4.7,11.7&#10;&#9;&#9;c-0.3,0.7-0.5,1.4-0.7,2.1c-1,1.2-1.9,2.4-3,3.8c-1.1,1.4-2.2,2.7-3.2,3.9c-0.8,0.9-1.6,1.8-2.3,2.5c-0.1,0.2-0.2,0.3-0.4,0.5&#10;&#9;&#9;c-0.4,0.5-1,0.9-1.7,1.2c-0.3,0.1-0.6,0.2-0.8,0.2c0,0-0.1,0-0.1,0c-0.7,0-1.4-0.1-2-0.4c-1.6-0.9-2.2-2.4-2.4-3.7&#10;&#9;&#9;c-0.2-1.4,0.1-2.8,1-3.8c0.2,1.3,0.5,2.3,1,3.3c0.1,0.3,0.3,0.5,0.4,0.7c0-1,0.2-2.1,0.5-3.4c0.5-2.3,1.2-4.8,2.2-7.8&#10;&#9;&#9;c1-2.9,2.1-5.9,3.4-9.1c1.3-3.1,2.7-6.3,4.1-9.4s2.9-6,4.2-8.6c1.4-2.6,2.6-4.9,3.8-6.8c1.1-1.9,2-3.2,2.6-3.9&#10;&#9;&#9;c0.6-0.7,0.6-1.5-0.2-2.4s-1.7-1.7-3-2.5s-2.5-1.5-3.8-2c-1.3-0.5-2.2-0.8-2.6-0.8c-1,0-2.3,1.1-3.9,3.3c-1.6,2.2-3.3,5.1-5,8.6&#10;&#9;&#9;c-1.8,3.6-3.6,7.6-5.4,12.2c-1.8,4.6-3.4,9.2-4.7,13.9c-1.3,4.7-2.3,9.2-3,13.7c-0.7,4.4-0.8,8.4-0.4,11.8c0,0.9,0.2,2,0.5,3.2&#10;&#9;&#9;c0.3,1.2,0.8,2.4,1.6,3.5c0.7,1.1,1.7,2,2.8,2.8c1.1,0.8,2.5,1.1,4.1,1.1c3,0,5.7-0.9,8-2.7c0.7-0.6,1.4-1.1,2-1.7&#10;&#9;&#9;c-0.5,2.3-0.8,4.6-1.2,6.9c-0.8,5.4-1.2,10.8-1.2,16.1c0,0.8,0.2,1.7,0.5,2.6c0.3,0.9,0.9,1.7,1.7,2.5c0.8,0.7,1.9,1.3,3.2,1.8&#10;&#9;&#9;c1.3,0.5,3,0.7,5,0.7c0.8,0,1.2-0.7,1.2-2.1c0-1.4,0-3.4,0-6.2c0-2.7,0.1-6.1,0.4-10c0.3-4,1.1-8.5,2.3-13.7&#10;&#9;&#9;c0.8-2.7,1.8-5.6,3.1-8.7c1.3-3.1,2.7-6.1,4.3-9c1.5-3,3.2-5.8,4.9-8.5s3.3-5,4.8-7.1c1.5-2.1,2.9-3.7,4.1-4.9&#10;&#9;&#9;c1.2-1.2,2.2-1.8,2.9-1.8c0.7,0,1,0.7,1,2.1s-0.4,3.3-1,5.5c-0.6,2.2-1.3,4.8-2.3,7.6c-1,2.8-2,5.6-3.1,8.3c-2.7,0.7-5,1.7-7,3&#10;&#9;&#9;c-2,1.3-3.6,2.8-4.8,4.4c-1.2,1.6-2,3.3-2.4,5.1c-0.4,1.7-0.3,3.3,0.2,4.8c0.5,1.4,1.5,2.6,3,3.5c1.5,0.9,3.4,1.3,5.9,1.3&#10;&#9;&#9;c1.7,0,3.5-0.7,5.3-2.1c1.9-1.4,3.7-3.3,5.5-5.6c1.8-2.3,3.5-5,5.1-8.1c1.6-3,3-6.2,4.2-9.5c1.2-3.3,2.2-6.6,2.9-9.9&#10;&#9;&#9;c0.7-3.3,1.1-6.4,1.1-9.3C179.5,134.8,179.4,133.8,179,132.6z M153.9,171.2c-1.3,2-2.5,3-3.5,3c-1.1,0-1.6-0.4-1.7-1.1&#10;&#9;&#9;c-0.1-0.8,0.2-1.7,1-2.8c0.7-1.1,1.8-2.2,3.2-3.4c1.4-1.2,3.2-2.2,5.2-3C156.7,166.7,155.3,169.2,153.9,171.2z"/>
	<path id="el_EEjC7jiisD" d="M123.4,110c-0.5-1-1.3-2-2.4-2.8c-1-0.8-2.2-1.5-3.3-2.1c-1.2-0.6-2.1-1-2.7-1.1&#10;&#9;&#9;c-0.1-0.1-0.2-0.1-0.3-0.1c-8,0-15.3,0.5-21.9,1.6s-12.4,2.6-17.2,4.4c-4.8,1.9-8.6,4.1-11.3,6.7c-2.7,2.6-4,5.4-4,8.5&#10;&#9;&#9;c0,2.4,0.7,4.7,2,6.8c1.3,2.1,2.8,3.8,4.5,5.1s3.1,1.9,4.4,1.9c1.3,0,2-0.8,2-2.7c0-0.1,0-0.1-0.1-0.2c-0.2-0.9-0.4-1.9-0.6-2.8&#10;&#9;&#9;c-0.2-1.9-0.3-3.8-0.1-5.8c0.2-1.9,0.7-3.8,1.5-5.6c0.4-0.9,0.9-1.8,1.5-2.5c0.6-0.8,1.3-1.5,2.1-2c-0.4,0.9-0.7,1.7-0.9,2.6&#10;&#9;&#9;c-0.3,0.9-0.5,1.7-0.7,2.6c-0.1,0.5-0.2,1.1-0.3,1.6c0.6-1,1.4-2,2.4-3c2.1-2,5.1-3.8,9.1-5.2s9.4-2.5,16.1-3.1&#10;&#9;&#9;c-2,2.2-4.2,4.8-6.5,7.6c-2.3,2.8-4.7,5.7-7.1,8.8c-2.5,3-5,6.1-7.6,9.1c-2.6,3.1-5.2,6-7.8,8.7c-3.3-2.6-6.7-4.6-10.2-6.1&#10;&#9;&#9;c-3.5-1.5-6.9-2.2-10.3-2.2c-2.1,0-4,0.6-5.8,1.7c-1.7,1.2-3,2.4-4,3.8c-0.9,1.4-1.3,2.7-1.2,3.8c0.1,1.1,1,1.7,2.7,1.7&#10;&#9;&#9;c4.4,0,8.4,0.4,12,1.1c3.6,0.7,6.8,1.7,9.8,3c-2.3,2-4.5,3.7-6.8,5.2c-2.3,1.4-4.4,2.5-6.5,3.1s-4.1,0.8-6,0.4&#10;&#9;&#9;c-1.9-0.3-3.6-1.3-5.2-2.9c-0.6-0.6-1.2-0.6-1.6,0c-0.5,0.6-0.7,1.6-0.8,2.9c-0.1,1.3,0,2.9,0.3,4.6c0.3,1.8,1,3.4,1.9,5&#10;&#9;&#9;c0.9,1.6,2.2,2.9,3.9,4s3.7,1.6,6.1,1.6c3.2,0,6.9-1.6,11.1-4.9c4.2-3.3,8.7-7.6,13.6-13.1c1.9,1.6,3.5,3.3,4.9,5&#10;&#9;&#9;c1.3,1.7,2.4,3.4,3.3,5c0.8,1.6,1.5,3.2,1.8,4.5c0.4,1.4,0.6,2.5,0.6,3.5c-0.1,3.2,0,6.1,0.4,8.8c0.4,2.7,1.1,5,2.1,6.9&#10;&#9;&#9;c1,1.9,2.4,3.4,4.1,4.5c1.8,1.1,4,1.6,6.6,1.6c0.5,0,1.4-0.1,2.9-0.3c1.4-0.2,2.9-0.7,4.4-1.5c1.5-0.8,2.9-2,4.2-3.7&#10;&#9;&#9;c1.3-1.6,2.1-3.9,2.4-6.7c0,0,0,0-0.1,0.1c-1,1.1-2.2,1.9-3.6,2.5c-1.3,0.6-2.8,0.9-4.4,0.9c-1.5,0-3.2-0.4-4.5-1.4&#10;&#9;&#9;c-1.3-1-2-2.5-2-4c1,1.1,2,1.8,3.1,2.2c0.6,0.2,1.2,0.3,1.8,0.4c-0.9-0.6-1.6-1.6-2.2-3.1c-0.8-2-1.2-5-1.2-8.9&#10;&#9;&#9;c0-4,0.7-9.4,2.1-16.2c0.6-3.1,1.4-6.5,2.4-10.2c1-3.7,2.2-7.5,3.8-11.5c1.5-4,3.3-8.1,5.5-12.3c2.1-4.2,4.7-8.5,7.6-12.8&#10;&#9;&#9;C123.9,112.1,123.9,111.1,123.4,110z M94.3,146.1c-2.1,6.5-3.7,12.7-4.9,18.9c-1.1-1.9-2.2-3.7-3.5-5.5c-1.3-1.8-2.7-3.5-4.2-5.1&#10;&#9;&#9;c3.3-4,6.6-8.2,9.7-12.6c3.2-4.5,6.3-9,9.4-13.6C98.6,133.7,96.4,139.7,94.3,146.1z"/>
</g></g></g>
</svg>
