<?xml version="1.0" encoding="utf-8"?>
<!-- Generator: Adobe Illustrator 19.0.0, SVG Export Plug-In . SVG Version: 6.00 Build 0)  -->
<svg version="1.1" id="Слой_1" xmlns="http://www.w3.org/2000/svg" xmlns:xlink="http://www.w3.org/1999/xlink" x="0px" y="0px"
	 viewBox="0 0 147 107" style="enable-background:new 0 0 147 107;" xml:space="preserve">
<style type="text/css">
	.st0{fill-rule:evenodd;clip-rule:evenodd;fill:#FEFEFE;}
</style>
<path id="XMLID_2_" class="st0" d="M93.8,43L93.8,43c0.2-0.1,0.4-0.2,0.6-0.4c0.6-0.4,1.3-0.8,1.9-1.2c0.8-0.5,1.6-1,2.4-1.5
	c0.8-0.5,1.5-1.1,2.3-1.6c0.6-0.5,1.2-1,1.8-1.5c0.6-0.5,1.2-1,1.8-1.5c1-0.8,1.9-1.6,2.9-2.5c1-0.8,1.9-1.7,2.9-2.5l0.2-0.2
	l0.1-0.1l0.1,0l4.7,1.3l0.4,0.1l-0.3,0.3l-0.4,0.5v0c-0.5,0.6-1,1.2-1.6,1.8c-0.5,0.6-1,1.2-1.6,1.7c-0.9,1-1.6,1.7-2.2,2.4
	c-0.7,0.8-1.5,1.6-2.2,2.4h0c-0.8,0.8-1.6,1.6-2.4,2.5c-0.8,0.8-1.6,1.6-2.4,2.4c-0.3,0.3-0.6,0.6-0.9,0.9c0.9-0.4,1.8-0.9,2.7-1.4
	c0.3-0.2,0.6-0.3,0.9-0.5c0.3-0.2,0.6-0.3,0.9-0.5c1.5-0.9,2.9-1.7,4.3-2.7l0.3-0.2l0.2-0.1l0.1,0.2l0.5,0.6l0.1,0.2l-0.2,0.2
	l-0.3,0.2c-1.4,1.1-2.7,2.1-4.2,3.2c-1.4,1-2.9,2-4.3,3c-2,1.3-4,2.7-6,4c-2.1,1.3-4.1,2.6-6.1,3.9L88.5,58L87,58.9l1.1-1.3l1.7-2.1
	c1.7-2,3.5-4,5.2-6c1.7-2,3.4-4.1,5.1-6.1c0.9-1,1.8-2.1,2.6-3.2c0.3-0.3,0.6-0.7,0.9-1c-0.4,0.3-0.7,0.6-1.1,0.9
	c-1.1,0.9-2.2,1.7-3.4,2.5c-1.9,1.4-3.8,2.7-5.7,3.9c-1.9,1.3-3.9,2.5-5.9,3.6l-0.6,0.4l-0.4,0.2l0-0.5l0.1-3.5v-0.1l0-0.1l0.1-0.1
	c0.5-0.8,1-1.5,1.6-2.2c-1.5,1.1-3,2.1-4.6,3.1c-2,1.2-4,2.2-6,3.2l-0.3,0.2l-0.2,0.1l-0.1-0.2L75,47l-0.1-0.2l0.1-0.1l0.3-0.2
	c1.9-1.7,3.6-3.5,5.4-5.4c1.3-1.5,2.7-3,3.9-4.6l-0.3,0.2c-0.6,0.4-1.1,0.7-1.6,1.1c-1.1,0.7-2.2,1.5-3.2,2.3
	c-1.1,0.8-2.2,1.6-3.2,2.3c-1,0.7-2,1.5-2.9,2.2c-1,0.7-1.9,1.5-2.9,2.3c-0.8,0.6-1.6,1.3-2.4,2c-0.8,0.7-1.6,1.3-2.4,2l-0.7,0.6
	l-0.5,0.4l0-0.6l0.1-3.8v-0.1l0.1-0.1l0.1-0.1c1.2-1.4,2.4-2.7,3.6-4.1c1.2-1.4,2.3-2.8,3.4-4.2c0.9-1.2,1.8-2.4,2.7-3.5
	c0.8-1.2,1.7-2.4,2.5-3.7l0.2-0.3l0.1-0.2l0.2,0.1l4.2,1.4l0.4,0.1l-0.2,0.3l-0.4,0.5c-0.8,1.1-1.7,2.1-2.5,3.1
	c-0.5,0.6-1.1,1.2-1.6,1.8c0.2-0.1,0.4-0.3,0.5-0.4c1.8-1.2,3.5-2.4,5.3-3.6c1.8-1.1,3.6-2.3,5.4-3.4l0.1-0.1l0.1-0.1l0.1,0l4.7,1.2
	l0.4,0.1l-0.3,0.3l-0.4,0.5c-1.8,2.3-3.7,4.5-5.7,6.7c-1.7,1.8-3.4,3.6-5.2,5.4l0,0c0.4-0.2,0.8-0.3,1.2-0.5
	c0.9-0.4,1.8-0.8,2.6-1.2c0.8-0.4,1.7-0.9,2.6-1.3l0.3-0.2l0.2-0.1l0.1,0.2l0.3,0.4l0.2-0.3c1-1.4,2.1-2.8,3.1-4.1
	c1-1.3,2-2.5,3-3.7c1-1.2,2-2.4,3.1-3.6l0.2-0.2l0.1-0.1l0.2,0.1l4.3,1.4l0.4,0.1l-0.3,0.3l-0.5,0.5c-1.1,1.1-2.2,2.2-3.3,3.3
	c-1,1.1-2.1,2.2-3.2,3.4c-0.7,0.8-1.4,1.5-2,2.3C94.5,42.2,94.2,42.6,93.8,43 M93.8,30.5L93.8,30.5L87,9.3L78.2,19L78,19.2l-0.2-0.3
	l-2.5-3.4l-0.1-0.2l0.2-0.2l11-12.1l2.4-2.6L89,0.2l0.1,0.4L90.2,4l7.9,24.9l0,0.1l-0.1,0.1l-0.4,0.4c-0.2,0.2-0.4,0.5-0.7,0.8
	c-0.2,0.3-0.5,0.5-0.7,0.8l-0.1,0.1l-0.2,0l-2.1-0.6l-0.1,0L93.8,30.5z M104.9,65.8L104.9,65.8l-3.4-10.6l-0.8-2.7l-0.1-0.2l0.2-0.1
	c0.5-0.3,1-0.7,1.6-1c0.6-0.4,1.1-0.7,1.5-1l0.5-0.3l0.3-0.2l0.1,0.3l4.5,14.3l0.1,0.3l-0.3,0l-0.3,0l-0.6,0.7
	c-0.1,0.2-0.3,0.3-0.5,0.5c-0.1,0.2-0.3,0.3-0.5,0.5l-0.1,0.1l-0.2,0l-1.8-0.5l-0.1,0L104.9,65.8z M82.3,83.3l0.1-3.3v-0.1l0.1-0.1
	l0.1-0.1c0.9-1.1,1.8-2.2,2.7-3.3c0.9-1.1,1.8-2.2,2.6-3.4c0.7-0.9,1.4-1.9,2-2.8c0.6-1,1.3-1.9,1.9-2.9L92,67l0.1-0.2l0.2,0.1
	l3.1,1.1c-1.4,1.6-5.6,6.5-8.9,10.5C84.2,81.2,82.2,84,82.3,83.3z M117,100.5L117,100.5l-6-19.1l-0.4-1.2l0.8,0.9
	c0.6,0.6,1.3,1.1,2,1.4c0.8,0.3,1.6,0.5,2.5,0.6l0.3,0l0.2,0l0,0.2l6.2,19.6l1.1,3.4l0.1,0.4l-0.4-0.1L120,106L68.8,94.7l-19.6-4.3
	l-0.4-0.1l0.3-0.3l0.4-0.5l0.4-0.5c0.3-0.4,0.7-0.8,1.1-1.3c0.4-0.5,0.7-0.9,1-1.3l0.1-0.1l0.2,0l17.6,3.9L117,100.5z M134.7,20.9
	L134.7,20.9c-1,1.1-2,2.2-3,3.3c-0.9,1.1-1.9,2.2-2.9,3.3c-1.3,1.5-2.5,3-3.8,4.6c-1.2,1.5-2.5,3.1-3.7,4.6v0
	c-1.1,1.4-2.2,2.8-3.3,4.2c-1.1,1.4-2.2,2.8-3.2,4.2c-1,1.3-1.9,2.5-2.9,3.8c-0.9,1.2-1.9,2.5-2.8,3.8l-0.2,0.3l-0.1,0.2l-0.2-0.1
	l-0.7-0.4l-0.2-0.1l0.1-0.2l0.2-0.3c1.7-3.2,3.4-6.4,5.1-9.5c1.7-3.1,3.6-6.2,5.5-9.3c1.5-2.4,3.1-4.8,4.7-7.1
	c1.7-2.3,3.4-4.6,5.2-6.8l0.1-0.2l0.1-0.1l0.1,0l6.2,0.7l0.5,0.1l-0.3,0.4L134.7,20.9z M112.9,69.6L112.9,69.6l-1.4-1.3l-0.1,0.1
	l0,0c-2.2,3-4.1,6.2-6.7,8.8c-0.3,0.3-0.7,0.7-1,1.1c0.3-0.1,0.7-0.2,1-0.3c0.6-0.2,1.3-0.3,1.9-0.5c2.7-0.8,4-1.2,5.3-1.7l0.2-0.1
	l0.4-0.1l0.2-0.1l0.1,0.2l0.3,0.7l0.1,0.2l-0.2,0.1l-0.2,0.1c0.3,0.2,0.6,0.4,1,0.6c0.4,0.2,0.8,0.4,1.3,0.5c1.1-1,2.4-2.2,3.6-3.5
	c0.9-1,1.6-2.1,2.2-3.1l4.2-2.9c0,0.3,0,0.6-0.1,0.9c-0.1,0.6-0.2,1.2-0.4,1.8c-0.1,0.3-0.2,0.7-0.4,1c-0.1,0.3-0.3,0.7-0.4,1
	c-0.6,1.3-1.4,2.4-2.3,3.5c0.1-0.1,0.3-0.1,0.4-0.2c0.5-0.2,1-0.5,1.5-0.7c0.2-0.1,0.4-0.2,0.6-0.3l0-0.1l-0.4-0.7l-0.1-0.2l0.2-0.1
	l0.3-0.2c1.1-0.6,2.2-1.3,3.3-1.9c1.1-0.7,2.2-1.4,3.2-2.1c0.5-0.3,0.9-0.7,1.4-1.1c0.5-0.4,0.9-0.7,1.4-1.1
	c0.6-0.5,1.1-0.9,1.7-1.4c0.6-0.5,1.1-1,1.6-1.4l2.2-3.4l0.1-0.1l0.1,0l0.1,0c0.6-0.2,1.3-0.4,1.9-0.6c0.7-0.2,1.4-0.3,2-0.3
	c0.4,0,0.9,0,1.3,0c0.4,0,0.9,0.1,1.3,0.1l1,0.1l0.6,0.1l-0.5,0.4l-0.8,0.6c-0.3,0.2-0.5,0.4-0.8,0.6c-0.3,0.2-0.5,0.4-0.8,0.6
	l-0.3,0.2v0l-0.2,0.2c-0.4,0.4-0.9,0.7-1.3,1.1c-0.3,0.2-0.5,0.4-0.8,0.6l-6.2,4.3c0,0-0.1,0.1-0.1,0.1c-0.2,0.1-0.4,0.3-0.7,0.5
	l-0.1,0.1l0,0c-2.5,1.8-5.5,4.4-8,5.6c0.4,0.3,0.8,0.6,1.3,0.9c0.5,0.3,1,0.5,1.6,0.7c1.2-1,2.5-2.2,3.6-3.5c0.8-1,1.6-2,2.1-3.1
	l4.3-2.9c0,0.3,0,0.6-0.1,0.9c-0.1,0.6-0.2,1.3-0.4,1.8c-0.1,0.3-0.2,0.7-0.4,1c-0.1,0.3-0.3,0.7-0.4,1c-0.6,1.3-1.4,2.4-2.3,3.5
	c0.1-0.1,0.3-0.1,0.4-0.2c0.5-0.2,1-0.5,1.5-0.7c0.3-0.2,0.7-0.4,0.9-0.5c0.3-0.2,0.6-0.3,0.9-0.5l1.8-1l0.3-0.2l0.2-0.1l0.1,0.2
	l0.4,0.7l0.1,0.2l-0.2,0.1l-0.3,0.2c-0.7,0.5-1.4,1-2,1.4c-0.7,0.5-1.3,0.9-2,1.4c-0.2,0.1-0.4,0.3-0.5,0.4
	c-0.1,0.1-0.3,0.2-0.5,0.4l0,0l-0.1,0.1c-0.1,0.1-0.3,0.2-0.4,0.3c-1,0.7-2.1,1.3-3.2,1.8c-1.1,0.5-2.3,1-3.5,1.2l-0.1,0l-0.1,0l0,0
	l-0.1,0c-0.6-0.1-1.3-0.2-1.9-0.4c-0.6-0.3-1.2-0.6-1.7-1.2v0l0,0l0,0v0c-0.2-0.4-0.4-1-0.6-1.6c-0.1-0.4-0.2-0.9-0.3-1.3l-0.5,0.3
	c-0.3,0.2-0.6,0.4-0.8,0.6c-0.2,0.1-0.4,0.3-0.6,0.4c-0.1,0.1-0.3,0.2-0.5,0.4v0l-0.1,0.1c-0.1,0.1-0.3,0.2-0.4,0.3
	c-1,0.7-2.1,1.3-3.2,1.8c-1.1,0.5-2.3,1-3.5,1.2l-0.1,0l-0.1,0l0,0l-0.1,0c-0.6-0.1-1.3-0.2-1.9-0.4c-0.7-0.3-1.3-0.6-1.7-1.2l0,0
	l0,0v0c-0.2-0.3-0.4-0.8-0.5-1.2c-0.1-0.3-0.2-0.7-0.3-1l-0.2,0.1c-0.1,0.1-0.3,0.2-0.5,0.3c-0.9,0.5-1.7,0.9-2.6,1.4
	c-0.9,0.5-1.9,0.9-2.8,1.3c-0.9,0.4-1.9,0.8-2.9,1.2l-0.2,0.1l-0.1,0.1l-0.1-0.1l-2.4-1.9l-0.2-0.2l0.1-0.2l0.2-0.3
	c0.5-0.8,1.1-1.6,1.7-2.4c-1.1,0.9-2.2,1.7-3.4,2.4c-1.5,1-3.1,1.8-4.6,2.6l-0.4,0.2l-0.2,0.1L92,82.6l-1.6-3l-0.1-0.2l0.1-0.1
	l0.2-0.2c1.4-1.3,2.7-2.7,3.9-4.1c0.9-1,1.7-2,2.6-3.1c-0.2,0.2-0.4,0.3-0.6,0.4c-0.8,0.6-1.7,1.2-2.5,1.8c-0.8,0.6-1.6,1.3-2.4,1.9
	c-0.7,0.6-1.5,1.2-2.2,1.8c-0.8,0.6-1.5,1.2-2.2,1.8c-0.6,0.5-1.3,1.1-1.9,1.6c-0.4,0.4-0.9,0.8-1.3,1.2c8.3-9.8,9.1-10.5,12.6-12.9
	c1.4-0.9,2.7-1.8,4.2-2.7l0.1-0.1l0.1-0.1l0.1,0l3.7,1l0.4,0.1l-0.2,0.3l-0.4,0.5c-1.3,1.8-2.7,3.5-4.2,5.2c-1.2,1.4-2.4,2.7-3.6,4
	l0.2-0.1c0.7-0.3,1.3-0.6,2-1c0.7-0.3,1.3-0.7,2-1.1l0.3-0.2l0.2-0.1l0.1,0.2l0.3,0.5c0.8-1.1,1.7-2.3,2.5-3.4
	c0.8-1.1,1.7-2.1,2.5-3.1c0.8-1,1.7-2,2.6-3l0.1-0.1l0.1-0.1l0.1,0l4.2-0.4l0.1,0l0.1,0.1l0.1,0.1c0.2,0.2,0.5,0.5,0.8,0.7
	c0.2,0.3,0.5,0.5,0.7,0.8v0v0v0c0.1,0.1,0.1,0.2,0.2,0.2c0.1,0.1,0.1,0.1,0.2,0.2c0.3,0.4,0.5,0.8,0.7,1.2l0.2,0.4l0.1,0.2l-0.2,0.1
	l-0.3,0.2c-0.9,0.5-1.8,1.1-2.7,1.6c-0.9,0.5-1.8,1-2.8,1.5c-0.8,0.4-1.5,0.8-2.3,1.2c-0.6,0.3-1.1,0.5-1.7,0.8
	C108.8,73.5,111.9,70.2,112.9,69.6z M42.7,88.9L42.7,88.9l-9.1-2l-0.5-0.1l0.3-0.3c0.5-0.5,1-1,1.5-1.6c0.5-0.5,1-1,1.5-1.5
	c0.1-0.1,0.3-0.3,0.4-0.4l0.1-0.1l0.1,0l8.2,1.8l0.4,0.1l-0.2,0.3c-0.4,0.6-0.9,1.2-1.3,1.8c-0.4,0.6-0.9,1.2-1.3,1.8L42.8,89
	L42.7,88.9z M120.1,71l6.6-4.4c0.2-0.1,0.3-0.2,0.4-0.4c0.3-0.2,0.6-0.5,0.9-0.7c0.3-0.2,0.6-0.5,0.9-0.7c0.3-0.2,0.6-0.5,0.9-0.7
	c0.3-0.2,0.5-0.4,0.8-0.6c0.2-0.2,0.5-0.4,0.8-0.6l0.8-0.6l0.5-0.4l-0.6-0.1l-1-0.1c-0.4-0.1-0.8-0.1-1.3-0.1c-0.4,0-0.9-0.1-1.3,0
	c-0.7,0-1.3,0.1-2,0.3c-0.7,0.2-1.3,0.4-1.9,0.6l-0.1,0l-0.1,0l-0.1,0.1l-2.2,3.4c-0.5,0.5-1,0.9-1.6,1.4c-0.6,0.5-1.1,1-1.7,1.4
	c-0.4,0.4-0.9,0.7-1.4,1.1c-0.5,0.4-0.9,0.7-1.4,1.1c-1,0.7-2.1,1.4-3.2,2.1c-1.1,0.7-2.2,1.3-3.3,1.9l-0.4,0.2l-0.2,0.1l0.1,0.2
	l0.4,0.7l0.1,0.2l0.2-0.1l0.4-0.2c0.8-0.3,1.5-0.7,2.1-1c0.7-0.3,1.4-0.7,2.1-1c0.5-0.2,1-0.5,1.4-0.7c0.5-0.2,0.9-0.5,1.4-0.7
	c0.5-0.2,0.9-0.5,1.3-0.8c0.4-0.3,0.9-0.5,1.3-0.8L120.1,71z M83.5,69.5c0-0.2,0-0.5,0-0.7c0-0.2,0-0.3-0.1-0.5
	c0-0.2-0.1-0.3-0.1-0.5v0v0l-0.1-0.4l-0.1-0.2l-0.2,0l-4.3,0.4l-0.1,0l-0.1,0.1l-0.1,0.1c-2.1,2.2-4,4.6-5.8,7.1
	c-0.3,0.5-0.7,1-1,1.5c-0.3,0.5-0.6,0.9-0.9,1.4c-1.1,0.5-2.2,1-3.4,1.3c-0.1,0-0.3,0.1-0.4,0.1l0,0c0.3-0.3,0.5-0.5,0.7-0.8
	c0.6-0.6,1.1-1.2,1.7-1.9c1-1.1,1.8-2.2,2.5-3.4l-3.6-0.3c-2.5,3-6.4,5.9-9.9,7.6c0.1-0.2,0.3-0.3,0.4-0.5c1.9-3.4,5.6-6.5,9.7-7.7
	l3.8,0.2c0.9-1.5,1.3-2,1.8-3.6l-0.8-0.2l-0.4-0.1C71.9,68.2,71,68,70,68c-0.2,0-0.4,0-0.6,0c-0.2,0-0.4,0-0.6,0h0l-0.1,0h-0.1
	l-0.1,0L68.5,68c-1.5,0.9-2.9,2-4.3,3.2c-1.4,1.2-2.7,2.4-3.9,3.7c-1.1,1.1-2.2,2.3-3.2,3.6c-1,1.2-2,2.5-2.8,3.9l-0.1,0.2l-0.1,0.2
	l0.1,0.1l1.6,2.3l0.1,0.2l0.2-0.1l0.3-0.1c0.2-0.1,0.5-0.2,0.7-0.3l0.1,0v0v0c0.2-0.1,0.5-0.2,0.8-0.3h0l0.8-0.3l0.2-0.1
	c0.6-0.2,1.2-0.5,1.8-0.7l0.4,0.9l0.1,0.2l0.2-0.1l0.4-0.1c1.4-0.5,2.8-1.2,4.1-1.9c1-0.5,2-1.1,2.9-1.7c-0.1,0.2-0.3,0.4-0.4,0.7
	l-0.2,0.3l-0.1,0.2l0.2,0.1l2.7,1.9l0.1,0.1l0.1,0l0.2-0.1c0.6-0.2,1.3-0.4,1.9-0.7c0.6-0.2,1.2-0.4,1.9-0.7
	c0.1-0.2,0.3-0.4,0.4-0.7c0.3-0.5,0.5-0.9,0.8-1.5c0.2-0.4,0.4-0.8,0.5-1.2c-0.7,0.2-1.3,0.3-2,0.5c-0.9,0.2-1.7,0.4-2.6,0.5
	c1.1-1.4,2.2-2.7,3.4-4c1.2-1.3,2.4-2.6,3.7-3.8c-0.1,0.9-0.3,2-0.6,3.1c-0.3,1.4-0.2,1.4-0.7,2.5L83.5,69.5z M78,25.3L78,25.3
	l-9.4,6.9l-0.4,0.3l2.3,0.6l0.4,0.1l-0.3,0.3l-0.4,0.5c-0.9,1.2-1.9,2.4-2.9,3.6c-1,1.2-2,2.3-3.1,3.5c-0.9,1-1.9,2-2.9,3
	c-0.7,0.7-1.3,1.4-2,2l0,0c0.4-0.2,0.8-0.3,1.2-0.5c0.9-0.4,1.8-0.8,2.6-1.2c0.8-0.4,1.7-0.9,2.6-1.3l0.3-0.2l0.2-0.1l0.1,0.2
	l0.4,0.6l0.1,0.2L66.9,44l-0.3,0.2c-1.7,1.4-3.6,2.7-5.6,3.9c-2,1.2-4,2.2-6,3.2l-0.4,0.2l-0.2,0.1l-0.1-0.2l-2-3.6l-0.1-0.2
	l0.2-0.1l0.2-0.2c0.6-0.5,1.1-1,1.6-1.6c0.5-0.5,1-1.1,1.5-1.6c0.6-0.7,1.3-1.4,1.9-2.1c0.6-0.7,1.2-1.4,1.8-2.1
	c0.6-0.7,1.2-1.4,1.8-2.1c0.6-0.7,1.1-1.4,1.7-2.1c0.4-0.6,0.9-1.1,1.3-1.7c0.4-0.6,0.8-1.1,1.2-1.7l0.2-0.3l0.1-0.2l0.2,0.1
	l1.5,0.4l3.8-7.3l0.1-0.2l0.2,0l6.5,0.1l0.8,0L78,25.3z M27.4,85.6L27.4,85.6L18,83.5l-0.5-0.1l0.4-0.3l3.9-3.4l0.1-0.1l0.1,0l0.2,0
	l7.4,1.6l0.4,0.1l-0.2,0.3c-0.3,0.5-0.6,1.1-1,1.9c-0.4,0.6-0.7,1.3-1,1.9l-0.1,0.2L27.4,85.6z M75.5,84.1c-0.2,0.3-0.4,0.7-0.6,1.2
	l-0.2,0.3l-0.1,0.2l0.2,0.1l0.7,0.4l0.2,0.1l0.1-0.2L76,86c0.8-1.1,1.6-2.1,2.4-3.2c0.8-1.1,1.5-2.1,2.3-3.2
	c0.8-1.1,1.6-2.1,2.3-3.2c0.8-1.1,1.6-2.2,2.3-3.2c1.6-2.2,3.3-4.4,5-6.6c1.7-2.2,3.4-4.3,5.2-6.4l0.5-0.6l0.3-0.4L96,59.3L91,58.8
	l-0.1,0l-0.1,0.1L90.7,59c-0.5,0.6-1,1.2-1.5,1.9c-0.5,0.6-0.9,1.3-1.4,2c-1,1.6-2,3.2-3,4.8C81.8,73.2,78.2,78.8,75.5,84.1z
	 M41.4,62.1L41.4,62.1c-0.8,0.6-1.7,1.1-2.5,1.7c-1.1,0.8-2.2,1.5-3.2,2.3c-1.5,1.1-3,2.2-4.4,3.4c-1.5,1.2-2.9,2.3-4.3,3.5v0v0
	C22,77.1,15.5,83.5,9.7,89.1c-2.7,2.6-5.2,5.1-7.4,7.1L2,96.6l-0.2,0.2l-0.2-0.2l-1.4-1.4L0,95l0.1-0.2l0.2-0.3
	c0.2-0.3,0.5-0.7,0.8-1.2c4-5.6,18.7-26.3,22.5-39.7l0-0.1l0.1-0.1l9.1-4.6l0.6-0.3l-0.3,0.7c-3.6,9.5-11.7,21-18.2,30.2
	c1.7-1.7,3.4-3.4,5.2-5.1c2.5-2.4,5-4.7,7.6-7c1.6-1.4,3.1-2.8,4.7-4.2c1.6-1.4,3.2-2.7,4.8-4c1.4-1.1,2.8-2.2,4.2-3.3
	c1.4-1.1,2.9-2.1,4.4-3.2l0.2-0.1l0.1-0.1l0.1,0.1l4.7,2.4l0.3,0.1l-0.1,0.2L51,55.7v0c-0.6,1-1.2,2-1.9,3c-0.6,1-1.2,2-1.9,3
	c-2.8,4.5-5.6,8.9-8.5,13.3c1.6-1.6,3.3-3.2,5-4.7c2.3-2.1,4.6-4.2,7-6.2c2.5-2.2,5.1-4.3,7.7-6.4c2.6-2.1,5.3-4.1,8-6l0.2-0.1
	l0.1-0.1l0.1,0.1l4.6,2.4l0.3,0.1l-0.1,0.2l-0.2,0.4c-2.2,3.6-4.5,7.2-6.8,10.7c-2.3,3.5-4.7,7-7.1,10.4c-1.5,2.1-2.9,4.1-4.4,6.1
	c-1.5,2-3,4-4.6,6c-1.2,1.5-2.5,3.1-3.8,4.5c-1.3,1.5-2.6,3-4,4.4l-0.3,0.3l-0.2,0.2l-0.2-0.2l-0.6-0.5l-0.2-0.2l0.1-0.2l0.2-0.3
	c2.6-3.4,5.1-6.9,7.6-10.4c2.5-3.5,4.9-7.1,7.1-10.7c0.9-1.4,1.7-2.8,2.5-4.2c0.8-1.4,1.6-2.9,2.4-4.3c0.5-1,1-1.9,1.5-2.9
	c0.4-0.7,0.7-1.4,1-2.2c-1.1,0.7-2.1,1.4-3.1,2.1c-1.3,0.9-2.6,1.8-3.8,2.7c-1.7,1.2-3.3,2.5-5,3.8c-1.6,1.3-3.3,2.6-4.9,3.9
	c-1.7,1.4-3.4,2.8-5,4.2c-1.6,1.4-3.2,2.9-4.8,4.4c-1,1-2.1,2.1-3.1,3.2c-1,1.1-2,2.2-2.8,3.4l-0.2,0.3L29,89.3l-0.2-0.1l-0.7-0.4
	l-0.2-0.1l0.1-0.2l0.2-0.3c0.8-1.5,1.7-3.1,2.6-4.8c0.9-1.6,1.7-3.3,2.6-4.8l0.5-0.9c0.6-1.2,1.2-2.3,1.9-3.6
	c0.6-1.2,1.3-2.5,1.9-3.7c0.6-1.2,1.2-2.5,1.8-3.7c0.4-0.9,0.8-1.7,1.2-2.6C40.9,63.3,41.1,62.7,41.4,62.1z M38.8,47.4
	c2.3-2.2,4.7-4.4,7.1-6.5c2.8-2.5,5.6-4.9,8.4-7.2c1.8-1.5,3.6-3,5.4-4.4c4.8-3.9,9.6-8.6,14.6-12.1l1.2,1.5l0.2,0.2L75.3,19
	L75,19.2c-1.6,1.3-3.2,2.7-4.8,4.1c-1.6,1.4-3.2,2.8-4.7,4.3c-2.1,1.9-4.1,3.8-6.2,5.8c-2.1,2-4.2,3.9-6.2,5.8c-2.1,2-4.1,4-6.1,5.9
	c-2,2-4,4-6.1,6c-1.6,1.7-3.3,3.3-4.9,5c-1.6,1.7-3.2,3.4-4.8,5l-1.8,1.9l-1.2,1.2l0.7-1.5l1.1-2.4c0.4-0.7,0.7-1.5,1-2.3
	c0.3-0.8,0.6-1.5,0.9-2.3c0.4-0.9,0.7-1.8,1-2.7c0.3-0.9,0.6-1.8,0.9-2.7c0.9-2.6,1.7-5.2,2.4-7.8c0.7-2.6,1.4-5.3,2-7.9
	c0.4-2.1,0.8-4.3,1.2-6.4c0.3-2.2,0.5-4.3,0.6-6.5v-0.3l0-0.2l0.2,0l9.2-1.8l0.4-0.1l-0.1,0.4l-0.2,0.7c-0.8,2.4-1.6,4.7-2.5,7.1
	c-0.9,2.4-1.8,4.7-2.7,7c-0.9,2.4-1.9,4.8-2.9,7.1C40.5,43.6,39.7,45.5,38.8,47.4z"/>
</svg>
